<svg enable-background="new 0 0 1600 1200" fill="none" height="1200" viewBox="0 0 1600 1200" width="1600" xmlns="http://www.w3.org/2000/svg"><path d="m248.281 1028.64-119.88-447.3c-4.23-15.77-2.4-32.55 5.11-47.04l132.26-255.14c10.19-19.66 29.63-32.82 51.67-34.99l856.339-84.29c25.5-2.51 50.12 10.1 62.98 32.26l234.3 403.65c9.03 15.56 11.26 34.16 6.15 51.42l-113.21 382.14z" fill="#f1f1f1"/><path d="m330.711 281.91h13.08c2.8 0 5.08 2.27 5.08 5.08v20.95c0 1.43-1.16 2.59-2.59 2.59h-18.05c-1.43 0-2.59-1.16-2.59-2.59v-20.95c-.01-2.81 2.27-5.08 5.07-5.08z" fill="#858990"/><path d="m344.65 274.82h-14.8v7.16h14.8z" fill="#d7dadc"/><path d="m348.871 290.311h-23.24v11.82h23.24z" fill="#d7dadc"/><path d="m342.26 266.52h-10.03v8.3h10.03z" fill="#b1b5ba"/><path d="m340.25 259.77h-5.99v6.72h5.99z" fill="#858990"/><path d="m340.25 261.18v1.68h13.61v1.37c0 .46.38.84.84.84s.84-.38.84-.84v-1.37-1.65-.03z" fill="#d7dadc"/><path d="m503.08 266.811h-18.85c-2.3 4.97-3.49 10.38-3.49 15.85v27.85h25.83v-27.85c0-5.48-1.19-10.89-3.49-15.85z" fill="#d7dadc"/><path d="m506.57 285.93h-25.83v24.57h25.83z" fill="#b1b5ba"/><path d="m501.011 259.77h-14.7c-1.16 0-2.09.94-2.09 2.09v4.94h18.89v-4.94c-.01-1.15-.95-2.09-2.1-2.09z" fill="#858990"/><path d="m553.55 252.5h-25.02c-3.05 6.59-4.63 13.77-4.63 21.04v36.97h34.28v-36.97c.01-7.27-1.57-14.45-4.63-21.04z" fill="#d7dadc"/><path d="m558.18 277.891h-34.28v32.61h34.28z" fill="#b1b5ba"/><path d="m550.8 243.16h-19.52c-1.54 0-2.78 1.24-2.78 2.78v6.56h25.08v-6.56c0-1.54-1.24-2.78-2.78-2.78z" fill="#858990"/><path d="m392.43 266.811h-18.85c-2.3 4.97-3.49 10.38-3.49 15.85v27.85h25.83v-27.85c0-5.48-1.19-10.89-3.49-15.85z" fill="#b1b5ba"/><path d="m395.93 285.93h-25.83v24.57h25.83z" fill="#d7dadc"/><path d="m390.36 259.77h-14.7c-1.16 0-2.09.94-2.09 2.09v4.94h18.89v-4.94c0-1.15-.94-2.09-2.1-2.09z" fill="#858990"/><path d="m424.48 263.91h32.53v42.92c0 2.05-1.66 3.7-3.7 3.7h-25.12c-2.05 0-3.7-1.66-3.7-3.7z" fill="#d7dadc"/><path d="m457.01 229.77h-32.53v23.11h32.53z" fill="#858990"/><path d="m457.01 252.881h-16.26-16.26l1.3 3.97c.53 1.62.42 3.39-.3 4.93l-1 2.13h16.26 16.26l-1-2.13c-.72-1.55-.83-3.31-.3-4.93z" fill="#d7dadc"/><path d="m447.541 216.521-.02-4.71h-13.59v4.7c0 1-.34 1.96-.97 2.74l-8.49 10.52h16.26 16.26l-8.5-10.52c-.6-.77-.94-1.74-.95-2.73z" fill="#d7dadc"/><path d="m448.691 211.819h-15.92c-.59 0-1.06-.47-1.06-1.06v-8c0-.59.47-1.06 1.06-1.06h15.92c.59 0 1.06.47 1.06 1.06v8c0 .58-.47 1.06-1.06 1.06z" fill="#858990"/><path d="m614.099 267.18h-26.89c-1.01 0-1.84.82-1.84 1.84 0 1.01.82 1.84 1.84 1.84h26.89c1.01 0 1.84-.82 1.84-1.84s-.83-1.84-1.84-1.84z" fill="#d7dadc"/><path d="m613.14 270.85h-24.97v39.65h24.97z" fill="#b1b5ba"/><path d="m587.641 263.32h26.04c.55 0 .99.45.99.99v2.86h-28.03v-2.86c0-.55.45-.99 1-.99z" fill="#b1b5ba"/><path d="m590.221 259.461h20.88c.55 0 .99.45.99.99v2.86h-22.87v-2.86c0-.54.45-.99 1-.99z" fill="#b1b5ba"/><path d="m675.47 267.18h-26.89c-1.01 0-1.84.82-1.84 1.84 0 1.01.82 1.84 1.84 1.84h26.89c1.01 0 1.84-.82 1.84-1.84s-.82-1.84-1.84-1.84z" fill="#d7dadc"/><path d="m674.521 270.85h-24.97v39.65h24.97z" fill="#b1b5ba"/><path d="m649.01 263.32h26.04c.55 0 .99.45.99.99v2.86h-28.03v-2.86c0-.55.45-.99 1-.99z" fill="#b1b5ba"/><path d="m651.59 259.461h20.88c.55 0 .99.45.99.99v2.86h-22.86v-2.86c0-.54.44-.99.99-.99z" fill="#b1b5ba"/><path d="m755.43 267.18h-36.85c-1.01 0-1.84.82-1.84 1.84 0 1.01.82 1.84 1.84 1.84h36.85c1.01 0 1.84-.82 1.84-1.84-.01-1.02-.83-1.84-1.84-1.84z" fill="#d7dadc"/><path d="m753.191 270.85h-32.38v39.65h32.38z" fill="#b1b5ba"/><path d="m720.279 263.32h33.46c.55 0 .99.45.99.99v2.86h-35.44v-2.86c-.01-.55.44-.99.99-.99z" fill="#b1b5ba"/><path d="m722.859 259.461h28.29c.55 0 .99.45.99.99v2.86h-30.28v-2.86c0-.54.45-.99 1-.99z" fill="#b1b5ba"/><path d="m1065.83 267.18h-36.85c-1.01 0-1.84.82-1.84 1.84 0 1.01.82 1.84 1.84 1.84h36.85c1.01 0 1.84-.82 1.84-1.84-.01-1.02-.83-1.84-1.84-1.84z" fill="#d7dadc"/><path d="m1063.59 270.85h-32.38v39.65h32.38z" fill="#b1b5ba"/><path d="m1030.67 263.32h33.46c.55 0 .99.45.99.99v2.86h-35.44v-2.86c0-.55.44-.99.99-.99z" fill="#b1b5ba"/><path d="m1033.26 259.461h28.29c.55 0 .99.45.99.99v2.86h-30.28v-2.86c0-.54.45-.99 1-.99z" fill="#b1b5ba"/><path d="m849.6 260.039h25.07c1.08 0 1.95.87 1.95 1.95v46.58c0 1.08-.87 1.95-1.95 1.95h-25.07c-1.08 0-1.95-.87-1.95-1.95v-46.58c-.01-1.07.87-1.95 1.95-1.95z" fill="#b1b5ba"/><path d="m855.84 270.421c1.62 0 2.93-1.31 2.93-2.93s-1.31-2.93-2.93-2.93-2.93 1.31-2.93 2.93 1.31 2.93 2.93 2.93z" fill="#d7dadc"/><path d="m868.42 270.421c1.62 0 2.93-1.31 2.93-2.93s-1.31-2.93-2.93-2.93-2.93 1.31-2.93 2.93 1.31 2.93 2.93 2.93z" fill="#d7dadc"/><path d="m855.84 279.321c1.62 0 2.93-1.31 2.93-2.93s-1.31-2.93-2.93-2.93-2.93 1.31-2.93 2.93 1.31 2.93 2.93 2.93z" fill="#d7dadc"/><path d="m868.42 279.321c1.62 0 2.93-1.31 2.93-2.93s-1.31-2.93-2.93-2.93-2.93 1.31-2.93 2.93 1.31 2.93 2.93 2.93z" fill="#d7dadc"/><path d="m855.84 288.219c1.62 0 2.93-1.31 2.93-2.93s-1.31-2.93-2.93-2.93-2.93 1.31-2.93 2.93 1.31 2.93 2.93 2.93z" fill="#d7dadc"/><path d="m868.42 288.219c1.62 0 2.93-1.31 2.93-2.93s-1.31-2.93-2.93-2.93-2.93 1.31-2.93 2.93 1.31 2.93 2.93 2.93z" fill="#d7dadc"/><path d="m855.84 297.12c1.62 0 2.93-1.31 2.93-2.93s-1.31-2.93-2.93-2.93-2.93 1.31-2.93 2.93 1.31 2.93 2.93 2.93z" fill="#d7dadc"/><path d="m868.42 297.12c1.62 0 2.93-1.31 2.93-2.93s-1.31-2.93-2.93-2.93-2.93 1.31-2.93 2.93 1.31 2.93 2.93 2.93z" fill="#d7dadc"/><path d="m855.84 306.01c1.62 0 2.93-1.31 2.93-2.93s-1.31-2.93-2.93-2.93-2.93 1.31-2.93 2.93 1.31 2.93 2.93 2.93z" fill="#d7dadc"/><path d="m868.42 306.01c1.62 0 2.93-1.31 2.93-2.93s-1.31-2.93-2.93-2.93-2.93 1.31-2.93 2.93 1.31 2.93 2.93 2.93z" fill="#d7dadc"/><path d="m947.461 283.511v25.07c0 1.08-.871 1.95-1.951 1.95h-46.58c-1.08 0-1.95-.87-1.95-1.95v-25.07c0-1.08.87-1.95 1.95-1.95h46.58c1.08 0 1.951.87 1.951 1.95z" fill="#b1b5ba"/><path d="m940.02 292.68c1.62 0 2.93-1.31 2.93-2.93s-1.31-2.93-2.93-2.93-2.93 1.31-2.93 2.93 1.31 2.93 2.93 2.93z" fill="#d7dadc"/><path d="m940.02 305.27c1.62 0 2.93-1.31 2.93-2.93s-1.31-2.93-2.93-2.93-2.93 1.31-2.93 2.93 1.31 2.93 2.93 2.93z" fill="#d7dadc"/><path d="m931.119 292.68c1.62 0 2.93-1.31 2.93-2.93s-1.31-2.93-2.93-2.93-2.93 1.31-2.93 2.93 1.31 2.93 2.93 2.93z" fill="#d7dadc"/><path d="m931.119 305.27c1.62 0 2.93-1.31 2.93-2.93s-1.31-2.93-2.93-2.93-2.93 1.31-2.93 2.93 1.31 2.93 2.93 2.93z" fill="#d7dadc"/><path d="m922.219 292.68c1.62 0 2.93-1.31 2.93-2.93s-1.31-2.93-2.93-2.93-2.93 1.31-2.93 2.93 1.31 2.93 2.93 2.93z" fill="#d7dadc"/><path d="m922.219 305.27c1.62 0 2.93-1.31 2.93-2.93s-1.31-2.93-2.93-2.93-2.93 1.31-2.93 2.93 1.31 2.93 2.93 2.93z" fill="#d7dadc"/><path d="m913.321 292.68c1.62 0 2.93-1.31 2.93-2.93s-1.31-2.93-2.93-2.93-2.93 1.31-2.93 2.93 1.31 2.93 2.93 2.93z" fill="#d7dadc"/><path d="m913.321 305.27c1.62 0 2.93-1.31 2.93-2.93s-1.31-2.93-2.93-2.93-2.93 1.31-2.93 2.93 1.31 2.93 2.93 2.93z" fill="#d7dadc"/><path d="m904.42 292.68c1.62 0 2.93-1.31 2.93-2.93s-1.31-2.93-2.93-2.93-2.93 1.31-2.93 2.93 1.31 2.93 2.93 2.93z" fill="#d7dadc"/><path d="m904.42 305.27c1.62 0 2.93-1.31 2.93-2.93s-1.31-2.93-2.93-2.93-2.93 1.31-2.93 2.93 1.31 2.93 2.93 2.93z" fill="#d7dadc"/><path d="m967.279 285.18h39.541v22.4c0 1.63-1.32 2.96-2.96 2.96h-33.621c-1.63 0-2.96-1.32-2.96-2.96z" fill="#fff"/><path d="m1006.82 285.18h-39.541v22.4h39.541z" fill="#b1b5ba"/><path d="m1000.1 270.57h-26.091c0 4.17-1.45 8.21-4.1 11.42l-2.63 3.19h39.541l-2.63-3.19c-2.65-3.22-4.09-7.25-4.09-11.42z" fill="#fff"/><path d="m1000.35 258.08h-26.6c-1.19 0-2.15.96-2.15 2.15v10.33h30.9v-10.33c0-1.18-.96-2.15-2.15-2.15z" fill="#b1b5ba"/><path d="m975.19 261.68h-1.18v8.89h1.18z" fill="#858990"/><path d="m979.231 261.68h-1.18v8.89h1.18z" fill="#858990"/><path d="m983.28 261.68h-1.18v8.89h1.18z" fill="#858990"/><path d="m987.33 261.68h-1.18v8.89h1.18z" fill="#858990"/><path d="m991.369 261.68h-1.18v8.89h1.18z" fill="#858990"/><path d="m995.42 261.68h-1.18v8.89h1.18z" fill="#858990"/><path d="m999.459 261.68h-1.18v8.89h1.18z" fill="#858990"/><path d="m998.19 292h-22.28c-.55 0-1-.45-1-1s.45-1 1-1h22.28c.55 0 1 .45 1 1s-.45 1-1 1z" fill="#fff"/><path d="m998.19 296.369h-22.28c-.55 0-1-.45-1-1s.45-1 1-1h22.28c.55 0 1 .45 1 1 0 .56-.45 1-1 1z" fill="#fff"/><path d="m998.19 300.75h-22.28c-.55 0-1-.45-1-1s.45-1 1-1h22.28c.55 0 1 .45 1 1 0 .56-.45 1-1 1z" fill="#fff"/><path d="m1243.14 310.529h-86.13c-1.25 0-2.26-1.01-2.26-2.26v-44.72c0-1.25 1.01-2.26 2.26-2.26h86.13c1.25 0 2.26 1.01 2.26 2.26v44.72c0 1.25-1.01 2.26-2.26 2.26z" fill="#fff"/><path d="m1170.48 310.531h-13.44c-1.27 0-2.29-1.03-2.29-2.29v-44.65c0-1.27 1.03-2.29 2.29-2.29h13.44z" fill="#858990"/><path d="m1184.96 281.87c0-3.7 3-6.69 6.69-6.69h29.88c3.7 0 6.69 3 6.69 6.69 0 3.7-3 6.69-6.69 6.69h-29.88c-3.69 0-6.69-2.99-6.69-6.69z" fill="#858990"/><path d="m1326.34 346.479h-1095.459l18.63-35.95h1055.969z" fill="#d7dadc"/><path d="m1326.34 346.48h-1095.459l-6 11.56h1108.179z" fill="#fff"/><path d="m1121.03 228.881v-12.24h-9.31-9.31v12.24c-2.46 1.39-4.5 3.15-6.18 5.01-4.52 5.01-6.83 11.63-6.83 18.37v58.27h44.65v-58.27c0-6.75-2.31-13.36-6.83-18.37-1.69-1.86-3.73-3.63-6.19-5.01z" fill="#858990"/><path d="m1121.98 216.641h-20.51c-1.6 0-2.89-1.29-2.89-2.89v-4.15c0-1.6 1.29-2.89 2.89-2.89h20.51c1.6 0 2.89 1.29 2.89 2.89v4.15c0 1.6-1.3 2.89-2.89 2.89z" fill="#fff"/><path d="m1134.05 252.09h-44.65v53.11h44.65z" fill="#d7dadc"/><path d="m1123.4 262.621h-23.36c-.73 0-1.33-.59-1.33-1.33 0-.73.59-1.33 1.33-1.33h23.36c.73 0 1.33.59 1.33 1.33 0 .73-.59 1.33-1.33 1.33z" fill="#fff"/><path d="m1123.4 269.25h-23.36c-.73 0-1.33-.59-1.33-1.33 0-.73.59-1.33 1.33-1.33h23.36c.73 0 1.33.59 1.33 1.33s-.59 1.33-1.33 1.33z" fill="#fff"/><path d="m1127.45 298.34h-31.46c-.73 0-1.33-.59-1.33-1.33 0-.73.59-1.33 1.33-1.33h31.46c.73 0 1.33.59 1.33 1.33 0 .73-.6 1.33-1.33 1.33z" fill="#fff"/><path d="m236.34 472.1h15.06c3.23 0 5.84 2.62 5.84 5.84v24.13c0 1.65-1.34 2.99-2.99 2.99h-20.78c-1.65 0-2.99-1.34-2.99-2.99v-24.13c.02-3.22 2.64-5.84 5.86-5.84z" fill="#858990"/><path d="m252.4 463.939h-17.05v8.25h17.05z" fill="#d7dadc"/><path d="m257.25 481.77h-26.75v13.61h26.75z" fill="#d7dadc"/><path d="m249.65 454.381h-11.55v9.56h11.55z" fill="#b1b5ba"/><path d="m247.33 446.609h-6.9v7.74h6.9z" fill="#858990"/><path d="m247.33 448.23v1.93h15.67v1.57c0 .53.43.97.97.97.53 0 .97-.43.97-.97v-1.57-1.9-.03z" fill="#d7dadc"/><path d="m720.939 447.02h-25.02c-3.05 6.59-4.63 13.77-4.63 21.04v36.97h34.28v-36.97c0-7.26-1.58-14.44-4.63-21.04z" fill="#d7dadc"/><path d="m725.569 472.41h-34.28v32.61h34.28z" fill="#b1b5ba"/><path d="m718.191 437.68h-19.52c-1.54 0-2.78 1.24-2.78 2.78v6.56h25.08v-6.56c0-1.53-1.25-2.78-2.78-2.78z" fill="#858990"/><path d="m402.09 462.5h29.69v39.17c0 1.87-1.51 3.38-3.38 3.38h-22.93c-1.87 0-3.38-1.51-3.38-3.38z" fill="#fff"/><path d="m431.78 431.34h-29.69v21.1h29.69z" fill="#858990"/><path d="m431.78 452.439h-14.85-14.85l1.18 3.62c.48 1.48.39 3.09-.27 4.5l-.91 1.95h14.85 14.85l-.91-1.95c-.66-1.41-.76-3.02-.27-4.5z" fill="#fff"/><path d="m423.14 419.249-.02-4.3h-12.4v4.29c0 .91-.31 1.79-.88 2.5l-7.75 9.6h14.85 14.85l-7.76-9.6c-.57-.71-.89-1.59-.89-2.49z" fill="#fff"/><path d="m424.189 414.949h-14.53c-.53 0-.97-.43-.97-.97v-7.31c0-.53.43-.97.97-.97h14.53c.53 0 .97.43.97.97v7.31c0 .54-.44.97-.97.97z" fill="#858990"/><path d="m350.001 454.57h25.07c1.08 0 1.95.87 1.95 1.95v46.58c0 1.08-.87 1.95-1.95 1.95h-25.07c-1.08 0-1.95-.87-1.95-1.95v-46.58c0-1.08.87-1.95 1.95-1.95z" fill="#b1b5ba"/><path d="m356.241 464.95c1.62 0 2.93-1.31 2.93-2.93s-1.31-2.93-2.93-2.93-2.93 1.31-2.93 2.93 1.31 2.93 2.93 2.93z" fill="#d7dadc"/><path d="m368.83 464.95c1.62 0 2.93-1.31 2.93-2.93s-1.31-2.93-2.93-2.93-2.93 1.31-2.93 2.93 1.31 2.93 2.93 2.93z" fill="#d7dadc"/><path d="m356.241 473.84c1.62 0 2.93-1.31 2.93-2.93s-1.31-2.93-2.93-2.93-2.93 1.31-2.93 2.93 1.31 2.93 2.93 2.93z" fill="#d7dadc"/><path d="m368.83 473.84c1.62 0 2.93-1.31 2.93-2.93s-1.31-2.93-2.93-2.93-2.93 1.31-2.93 2.93 1.31 2.93 2.93 2.93z" fill="#d7dadc"/><path d="m356.241 482.741c1.62 0 2.93-1.31 2.93-2.93s-1.31-2.93-2.93-2.93-2.93 1.31-2.93 2.93 1.31 2.93 2.93 2.93z" fill="#d7dadc"/><path d="m368.83 482.741c1.62 0 2.93-1.31 2.93-2.93s-1.31-2.93-2.93-2.93-2.93 1.31-2.93 2.93 1.31 2.93 2.93 2.93z" fill="#d7dadc"/><path d="m356.241 491.639c1.62 0 2.93-1.31 2.93-2.93s-1.31-2.93-2.93-2.93-2.93 1.31-2.93 2.93 1.31 2.93 2.93 2.93z" fill="#d7dadc"/><path d="m368.83 491.639c1.62 0 2.93-1.31 2.93-2.93s-1.31-2.93-2.93-2.93-2.93 1.31-2.93 2.93 1.31 2.93 2.93 2.93z" fill="#d7dadc"/><path d="m356.241 500.54c1.62 0 2.93-1.31 2.93-2.93s-1.31-2.93-2.93-2.93-2.93 1.31-2.93 2.93 1.31 2.93 2.93 2.93z" fill="#d7dadc"/><path d="m368.83 500.54c1.62 0 2.93-1.31 2.93-2.93s-1.31-2.93-2.93-2.93-2.93 1.31-2.93 2.93 1.31 2.93 2.93 2.93z" fill="#d7dadc"/><path d="m975.989 454.57h25.071c1.08 0 1.95.87 1.95 1.95v46.58c0 1.08-.87 1.95-1.95 1.95h-25.071c-1.08 0-1.95-.87-1.95-1.95v-46.58c0-1.08.87-1.95 1.95-1.95z" fill="#b1b5ba"/><path d="m982.231 464.95c1.62 0 2.93-1.31 2.93-2.93s-1.31-2.93-2.93-2.93-2.93 1.31-2.93 2.93 1.31 2.93 2.93 2.93z" fill="#d7dadc"/><path d="m994.811 464.95c1.62 0 2.93-1.31 2.93-2.93s-1.31-2.93-2.93-2.93-2.93 1.31-2.93 2.93 1.31 2.93 2.93 2.93z" fill="#d7dadc"/><path d="m982.231 473.84c1.62 0 2.93-1.31 2.93-2.93s-1.31-2.93-2.93-2.93-2.93 1.31-2.93 2.93 1.31 2.93 2.93 2.93z" fill="#d7dadc"/><path d="m994.811 473.84c1.62 0 2.93-1.31 2.93-2.93s-1.31-2.93-2.93-2.93-2.93 1.31-2.93 2.93 1.31 2.93 2.93 2.93z" fill="#d7dadc"/><path d="m982.231 482.741c1.62 0 2.93-1.31 2.93-2.93s-1.31-2.93-2.93-2.93-2.93 1.31-2.93 2.93 1.31 2.93 2.93 2.93z" fill="#d7dadc"/><path d="m994.811 482.741c1.62 0 2.93-1.31 2.93-2.93s-1.31-2.93-2.93-2.93-2.93 1.31-2.93 2.93 1.31 2.93 2.93 2.93z" fill="#d7dadc"/><path d="m982.231 491.639c1.62 0 2.93-1.31 2.93-2.93s-1.31-2.93-2.93-2.93-2.93 1.31-2.93 2.93 1.31 2.93 2.93 2.93z" fill="#d7dadc"/><path d="m994.811 491.639c1.62 0 2.93-1.31 2.93-2.93s-1.31-2.93-2.93-2.93-2.93 1.31-2.93 2.93 1.31 2.93 2.93 2.93z" fill="#d7dadc"/><path d="m982.231 500.54c1.62 0 2.93-1.31 2.93-2.93s-1.31-2.93-2.93-2.93-2.93 1.31-2.93 2.93 1.31 2.93 2.93 2.93z" fill="#d7dadc"/><path d="m994.811 500.54c1.62 0 2.93-1.31 2.93-2.93s-1.31-2.93-2.93-2.93-2.93 1.31-2.93 2.93 1.31 2.93 2.93 2.93z" fill="#d7dadc"/><path d="m1099.7 479.699h39.54v22.4c0 1.63-1.32 2.96-2.96 2.96h-33.62c-1.63 0-2.96-1.32-2.96-2.96z" fill="#fff"/><path d="m1139.24 479.699h-39.54v21.19h39.54z" fill="#b1b5ba"/><path d="m1132.51 465.09h-26.09c0 4.17-1.45 8.21-4.1 11.42l-2.63 3.19h39.54l-2.63-3.19c-2.64-3.21-4.09-7.25-4.09-11.42z" fill="#fff"/><path d="m1132.77 452.609h-26.6c-1.19 0-2.15.96-2.15 2.15v10.33h30.9v-10.33c0-1.19-.96-2.15-2.15-2.15z" fill="#b1b5ba"/><path d="m1107.6 456.199h-1.18v8.89h1.18z" fill="#858990"/><path d="m1111.65 456.199h-1.18v8.89h1.18z" fill="#858990"/><path d="m1115.7 456.199h-1.18v8.89h1.18z" fill="#858990"/><path d="m1119.74 456.199h-1.18v8.89h1.18z" fill="#858990"/><path d="m1123.79 456.199h-1.18v8.89h1.18z" fill="#858990"/><path d="m1127.84 456.199h-1.18v8.89h1.18z" fill="#858990"/><path d="m1131.88 456.199h-1.18v8.89h1.18z" fill="#858990"/><path d="m1130.61 486.52h-22.28c-.55 0-1-.45-1-1s.45-1 1-1h22.28c.55 0 1 .45 1 1 0 .56-.45 1-1 1z" fill="#fff"/><path d="m1130.61 490.9h-22.28c-.55 0-1-.45-1-1s.45-1 1-1h22.28c.55 0 1 .45 1 1s-.45 1-1 1z" fill="#fff"/><path d="m1130.61 495.279h-22.28c-.55 0-1-.45-1-1s.45-1 1-1h22.28c.55 0 1 .45 1 1s-.45 1-1 1z" fill="#fff"/><path d="m759.199 479.699h39.54v22.4c0 1.63-1.32 2.96-2.96 2.96h-33.62c-1.63 0-2.96-1.32-2.96-2.96z" fill="#fff"/><path d="m798.739 479.699h-39.54v22.4h39.54z" fill="#b1b5ba"/><path d="m792.009 465.09h-26.09c0 4.17-1.45 8.21-4.1 11.42l-2.63 3.19h39.54l-2.63-3.19c-2.64-3.21-4.09-7.25-4.09-11.42z" fill="#fff"/><path d="m792.27 452.609h-26.601c-1.19 0-2.149.96-2.149 2.15v10.33h30.899v-10.33c0-1.19-.959-2.15-2.149-2.15z" fill="#b1b5ba"/><path d="m767.11 456.199h-1.18v8.89h1.18z" fill="#858990"/><path d="m771.151 456.199h-1.18v8.89h1.18z" fill="#858990"/><path d="m775.2 456.199h-1.18v8.89h1.18z" fill="#858990"/><path d="m779.241 456.199h-1.18v8.89h1.18z" fill="#858990"/><path d="m783.289 456.199h-1.18v8.89h1.18z" fill="#858990"/><path d="m787.34 456.199h-1.18v8.89h1.18z" fill="#858990"/><path d="m791.379 456.199h-1.18v8.89h1.18z" fill="#858990"/><path d="m790.11 486.52h-22.28c-.55 0-1-.45-1-1s.45-1 1-1h22.28c.55 0 1 .45 1 1 0 .56-.45 1-1 1z" fill="#fff"/><path d="m790.11 490.9h-22.28c-.55 0-1-.45-1-1s.45-1 1-1h22.28c.55 0 1 .45 1 1s-.45 1-1 1z" fill="#fff"/><path d="m790.11 495.279h-22.28c-.55 0-1-.45-1-1s.45-1 1-1h22.28c.55 0 1 .45 1 1s-.45 1-1 1z" fill="#fff"/><path d="m1167.64 469.42h55.57v31.48c0 2.3-1.86 4.16-4.16 4.16h-47.25c-2.3 0-4.16-1.86-4.16-4.16z" fill="#fff"/><path d="m1223.21 469.42h-55.57v31.48h55.57z" fill="#b1b5ba"/><path d="m1213.76 448.891h-36.67c0 5.86-2.04 11.53-5.76 16.05l-3.69 4.48h55.57l-3.69-4.48c-3.73-4.52-5.76-10.2-5.76-16.05z" fill="#fff"/><path d="m1214.12 431.34h-37.39c-1.67 0-3.02 1.35-3.02 3.02v14.52h43.44v-14.52c-.01-1.67-1.36-3.02-3.03-3.02z" fill="#b1b5ba"/><path d="m1178.75 436.391h-1.66v12.5h1.66z" fill="#858990"/><path d="m1184.44 436.391h-1.66v12.5h1.66z" fill="#858990"/><path d="m1190.12 436.391h-1.66v12.5h1.66z" fill="#858990"/><path d="m1195.81 436.391h-1.66v12.5h1.66z" fill="#858990"/><path d="m1201.5 436.391h-1.66v12.5h1.66z" fill="#858990"/><path d="m1207.18 436.391h-1.66v12.5h1.66z" fill="#858990"/><path d="m1212.87 436.391h-1.66v12.5h1.66z" fill="#858990"/><path d="m1211.08 479.011h-31.32c-.77 0-1.4-.63-1.4-1.4s.63-1.4 1.4-1.4h31.32c.77 0 1.4.63 1.4 1.4s-.62 1.4-1.4 1.4z" fill="#fff"/><path d="m1211.08 485.159h-31.32c-.77 0-1.4-.63-1.4-1.4s.63-1.4 1.4-1.4h31.32c.77 0 1.4.63 1.4 1.4s-.62 1.4-1.4 1.4z" fill="#fff"/><path d="m1211.08 491.31h-31.32c-.77 0-1.4-.63-1.4-1.4s.63-1.4 1.4-1.4h31.32c.77 0 1.4.63 1.4 1.4s-.62 1.4-1.4 1.4z" fill="#fff"/><path d="m1062.35 423.4v-12.24h-9.31-9.31v12.24c-2.46 1.39-4.5 3.15-6.18 5.01-4.52 5.01-6.83 11.63-6.83 18.37v58.27h44.65v-58.27c0-6.75-2.31-13.36-6.83-18.37-1.69-1.86-3.74-3.62-6.19-5.01z" fill="#858990"/><path d="m1063.29 411.17h-20.51c-1.6 0-2.89-1.29-2.89-2.89v-4.15c0-1.6 1.29-2.89 2.89-2.89h20.51c1.6 0 2.89 1.29 2.89 2.89v4.15c0 1.59-1.29 2.89-2.89 2.89z" fill="#fff"/><path d="m1075.36 446.609h-44.65v53.11h44.65z" fill="#fff"/><path d="m1064.72 457.14h-23.36c-.73 0-1.33-.59-1.33-1.33 0-.73.59-1.33 1.33-1.33h23.36c.73 0 1.33.59 1.33 1.33-.01.74-.6 1.33-1.33 1.33z" fill="#d7dadc"/><path d="m1064.72 463.779h-23.36c-.73 0-1.33-.59-1.33-1.33 0-.73.59-1.33 1.33-1.33h23.36c.73 0 1.33.59 1.33 1.33-.01.74-.6 1.33-1.33 1.33z" fill="#d7dadc"/><path d="m1068.77 492.859h-31.46c-.73 0-1.33-.59-1.33-1.33 0-.73.59-1.33 1.33-1.33h31.46c.73 0 1.33.59 1.33 1.33-.01.74-.6 1.33-1.33 1.33z" fill="#d7dadc"/><path d="m313.21 423.4v-12.24h-9.31-9.31v12.24c-2.46 1.39-4.5 3.15-6.18 5.01-4.52 5.01-6.83 11.63-6.83 18.37v58.27h44.65v-58.27c0-6.75-2.31-13.36-6.83-18.37-1.69-1.86-3.73-3.62-6.19-5.01z" fill="#858990"/><path d="m314.15 411.17h-20.51c-1.6 0-2.89-1.29-2.89-2.89v-4.15c0-1.6 1.29-2.89 2.89-2.89h20.51c1.6 0 2.89 1.29 2.89 2.89v4.15c0 1.59-1.29 2.89-2.89 2.89z" fill="#fff"/><path d="m326.22 446.609h-44.65v53.11h44.65z" fill="#fff"/><path d="m315.581 457.14h-23.36c-.73 0-1.33-.59-1.33-1.33 0-.73.59-1.33 1.33-1.33h23.36c.73 0 1.33.59 1.33 1.33-.01.74-.6 1.33-1.33 1.33z" fill="#d7dadc"/><path d="m315.581 463.779h-23.36c-.73 0-1.33-.59-1.33-1.33 0-.73.59-1.33 1.33-1.33h23.36c.73 0 1.33.59 1.33 1.33-.01.74-.6 1.33-1.33 1.33z" fill="#d7dadc"/><path d="m319.63 492.859h-31.46c-.73 0-1.33-.59-1.33-1.33 0-.73.59-1.33 1.33-1.33h31.46c.73 0 1.33.59 1.33 1.33-.01.74-.6 1.33-1.33 1.33z" fill="#d7dadc"/><path d="m1439.26 541.011h-1308.76s1.31-3.18 1.79-4.22c3.77-8.07 16.21-31.73 16.21-31.73h1269.89z" fill="#d7dadc"/><path d="m1439.26 541.01h-1308.76s-1.17 3.3-1.53 4.49c-.8 2.61-1.71 7.08-1.71 7.08h1318.72z" fill="#fff"/><path d="m669.771 505.06h-86.13c-1.25 0-2.26-1.01-2.26-2.26v-44.72c0-1.25 1.01-2.26 2.26-2.26h86.13c1.25 0 2.26 1.01 2.26 2.26v44.72c0 1.25-1.01 2.26-2.26 2.26z" fill="#fff"/><path d="m597.111 505.06h-13.44c-1.27 0-2.29-1.03-2.29-2.29v-44.65c0-1.27 1.03-2.29 2.29-2.29h13.44z" fill="#858990"/><path d="m611.59 476.401c0-3.7 3-6.69 6.69-6.69h29.88c3.7 0 6.69 3 6.69 6.69 0 3.7-3 6.69-6.69 6.69h-29.88c-3.69 0-6.69-3-6.69-6.69z" fill="#858990"/><path d="m1265.01 455.4h22.71c4.87 0 8.81 3.94 8.81 8.81v36.37c0 2.49-2.02 4.5-4.5 4.5h-31.32c-2.49 0-4.5-2.02-4.5-4.5v-36.37c-.01-4.86 3.93-8.81 8.8-8.81z" fill="#858990"/><path d="m1289.2 443.1h-25.69v12.43h25.69z" fill="#d7dadc"/><path d="m1296.53 469.99h-40.33v20.52h40.33z" fill="#d7dadc"/><path d="m1285.06 428.689h-17.41v14.41h17.41z" fill="#b1b5ba"/><path d="m1281.56 416.99h-10.4v11.67h10.4z" fill="#858990"/><path d="m1281.56 419.43v2.91h23.62v2.37c0 .8.65 1.46 1.46 1.46.8 0 1.46-.65 1.46-1.46v-2.37-2.87-.05z" fill="#d7dadc"/><path d="m333.499 686.439h905.671c29.11 0 52.71 23.6 52.71 52.71v290.181h-1011.091v-290.181c0-29.11 23.6-52.71 52.71-52.71z" fill="#d7dadc"/><path d="m352.239 720.881h868.191c17.28 0 31.29 14.01 31.29 31.29v277.159h-930.771v-277.159c0-17.28 14.01-31.29 31.29-31.29z" fill="#f1f1f1"/><path d="m1385.07 1031.1h-1153.02c-.44 0-.89-.33-.89-.89s.44-.89.89-.89h1153.14c.44 0 .89.33.89.89s-.45.89-1.01.89z" fill="#abafb4"/><path d="m1067.89 1029.35h-357.869c-6.84 0-12.38-5.54-12.38-12.38v-511.77c0-6.84 5.54-12.38 12.38-12.38h357.869c6.84 0 12.38 5.54 12.38 12.38v511.77c0 6.84-5.54 12.38-12.38 12.38z" fill="#4d61fc"/><path d="m1067.89 1029.35h-357.869c-6.84 0-12.38-5.54-12.38-12.38v-511.77c0-6.84 5.54-12.38 12.38-12.38h357.869c6.84 0 12.38 5.54 12.38 12.38v511.77c0 6.84-5.54 12.38-12.38 12.38z" fill="#fff" opacity=".0016"/><path d="m1061.54 1029.35h-357.871c-6.84 0-12.38-5.54-12.38-12.38v-511.77c0-6.84 5.54-12.38 12.38-12.38h357.871c6.84 0 12.38 5.54 12.38 12.38v511.77c0 6.84-5.54 12.38-12.38 12.38z" fill="#4d61fc"/><path d="m1061.54 1029.35h-357.871c-6.84 0-12.38-5.54-12.38-12.38v-511.77c0-6.84 5.54-12.38 12.38-12.38h357.871c6.84 0 12.38 5.54 12.38 12.38v511.77c0 6.84-5.54 12.38-12.38 12.38z" fill="#fff" opacity=".2401"/><path d="m979.729 459.21h-64.639c.44-2.15.67-4.37.67-6.64 0-18.31-14.84-33.15-33.14-33.15s-33.141 14.84-33.141 33.15c0 2.27.231 4.5.671 6.64h-64.64c-6.35 0-11.49 5.14-11.49 11.49v51.13c0 6.35 5.14 11.49 11.49 11.49h194.25c6.35 0 11.49-5.14 11.49-11.49v-51.13c-.03-6.34-5.181-11.49-11.521-11.49z" fill="#21252b"/><path d="m979.73 533.319h-194.25c-6.35 0-11.49-5.14-11.49-11.49v-11.38h217.23v11.38c0 6.35-5.15 11.49-11.49 11.49z" fill="#fff" opacity=".2"/><path d="m1020.66 634.679h-269.761c-4.71 0-8.53-3.82-8.53-8.53v-48.01c0-4.71 3.82-8.53 8.53-8.53h269.761c4.71 0 8.53 3.82 8.53 8.53v48.01c0 4.71-3.82 8.53-8.53 8.53z" fill="#fff" opacity=".7"/><path d="m805.151 666.391h-5.83v.58c-13.57 2.7-23.85 14.73-23.85 29.1s10.21 26.4 23.85 29.1v.58h5.83c16.41 0 29.68-13.27 29.68-29.68.01-16.41-13.27-29.68-29.68-29.68z" fill="#4d61fc"/><path d="m799.311 725.63c16.39 0 29.68-13.29 29.68-29.68s-13.29-29.68-29.68-29.68-29.68 13.29-29.68 29.68 13.29 29.68 29.68 29.68z" fill="#4d61fc"/><path d="m799.311 725.63c16.39 0 29.68-13.29 29.68-29.68s-13.29-29.68-29.68-29.68-29.68 13.29-29.68 29.68 13.29 29.68 29.68 29.68z" fill="#fff" opacity=".4"/><path d="m793.849 708.399-9.99-9.99c-.51-.51-.51-1.39 0-1.97l2.63-2.63c.51-.51 1.39-.51 1.97 0l6.42 6.42 15.46-15.54c.51-.51 1.39-.51 1.97 0l2.63 2.63c.51.51.51 1.39 0 1.97l-19.11 19.11c-.6.58-1.47.58-1.98 0z" fill="#fff"/><path d="m994.881 682.911h-129.52c-2.41 0-4.3-1.97-4.3-4.3 0-2.41 1.97-4.3 4.3-4.3h129.52c2.41 0 4.3 1.97 4.3 4.3.08 2.41-1.89 4.3-4.3 4.3z" fill="#fff"/><path d="m997.021 699.76h-133.7c-1.24 0-2.26-1.02-2.26-2.26s1.02-2.26 2.26-2.26h133.7c1.24 0 2.26 1.02 2.26 2.26.07 1.24-.95 2.26-2.26 2.26z" fill="#fff"/><path d="m969.051 713.77h-105.73c-1.24 0-2.26-1.02-2.26-2.26s1.02-2.26 2.26-2.26h105.73c1.24 0 2.26 1.02 2.26 2.26 0 1.23-1.02 2.26-2.26 2.26z" fill="#fff"/><path d="m805.151 753.301h-5.83v.58c-13.57 2.7-23.85 14.73-23.85 29.1s10.21 26.4 23.85 29.1v.58h5.83c16.41 0 29.68-13.27 29.68-29.68.01-16.4-13.27-29.68-29.68-29.68z" fill="#4d61fc"/><path d="m799.311 812.549c16.39 0 29.68-13.29 29.68-29.68s-13.29-29.68-29.68-29.68-29.68 13.29-29.68 29.68 13.29 29.68 29.68 29.68z" fill="#4d61fc"/><path d="m799.311 812.549c16.39 0 29.68-13.29 29.68-29.68s-13.29-29.68-29.68-29.68-29.68 13.29-29.68 29.68 13.29 29.68 29.68 29.68z" fill="#fff" opacity=".4"/><path d="m793.849 795.309-9.99-9.99c-.51-.51-.51-1.39 0-1.97l2.63-2.63c.51-.51 1.39-.51 1.97 0l6.42 6.42 15.46-15.54c.51-.51 1.39-.51 1.97 0l2.63 2.63c.51.51.51 1.39 0 1.97l-19.11 19.11c-.6.59-1.47.59-1.98 0z" fill="#fff"/><path d="m994.881 769.831h-129.52c-2.41 0-4.3-1.97-4.3-4.3 0-2.41 1.97-4.301 4.3-4.301h129.52c2.41 0 4.3 1.971 4.3 4.301.08 2.41-1.89 4.3-4.3 4.3z" fill="#fff"/><path d="m997.021 786.68h-133.7c-1.24 0-2.26-1.02-2.26-2.26s1.02-2.26 2.26-2.26h133.7c1.24 0 2.26 1.02 2.26 2.26.07 1.24-.95 2.26-2.26 2.26z" fill="#fff"/><path d="m969.051 800.68h-105.73c-1.24 0-2.26-1.02-2.26-2.26s1.02-2.26 2.26-2.26h105.73c1.24 0 2.26 1.02 2.26 2.26s-1.02 2.26-2.26 2.26z" fill="#fff"/><path d="m805.151 838.48h-5.83v.58c-13.57 2.7-23.85 14.73-23.85 29.1s10.21 26.4 23.85 29.1v.581h5.83c16.41 0 29.68-13.271 29.68-29.681s-13.27-29.68-29.68-29.68z" fill="#4d61fc"/><path d="m799.321 897.719c16.39 0 29.68-13.29 29.68-29.68s-13.29-29.68-29.68-29.68-29.68 13.29-29.68 29.68 13.29 29.68 29.68 29.68z" fill="#4d61fc"/><path d="m799.321 897.719c16.39 0 29.68-13.29 29.68-29.68s-13.29-29.68-29.68-29.68-29.68 13.29-29.68 29.68 13.29 29.68 29.68 29.68z" fill="#fff" opacity=".4"/><path d="m793.849 880.491-9.99-9.99c-.51-.51-.51-1.39 0-1.97l2.63-2.63c.51-.51 1.39-.51 1.97 0l6.42 6.42 15.46-15.54c.51-.51 1.39-.51 1.97 0l2.63 2.63c.51.51.51 1.39 0 1.97l-19.11 19.11c-.6.59-1.47.59-1.98 0z" fill="#fff"/><path d="m994.881 855.01h-129.52c-2.41 0-4.3-1.97-4.3-4.3 0-2.41 1.97-4.3 4.3-4.3h129.52c2.41 0 4.3 1.97 4.3 4.3.08 2.41-1.89 4.3-4.3 4.3z" fill="#fff"/><path d="m997.021 871.86h-133.7c-1.24 0-2.26-1.02-2.26-2.26s1.02-2.26 2.26-2.26h133.7c1.24 0 2.26 1.02 2.26 2.26.07 1.24-.95 2.26-2.26 2.26z" fill="#fff"/><path d="m969.051 885.86h-105.73c-1.24 0-2.26-1.02-2.26-2.26s1.02-2.26 2.26-2.26h105.73c1.24 0 2.26 1.02 2.26 2.26s-1.02 2.26-2.26 2.26z" fill="#fff"/><path d="m805.151 925.4h-5.83v.58c-13.57 2.7-23.85 14.73-23.85 29.1s10.21 26.4 23.85 29.1v.58h5.83c16.41 0 29.68-13.27 29.68-29.68s-13.27-29.68-29.68-29.68z" fill="#4d61fc"/><path d="m799.321 984.639c16.39 0 29.68-13.29 29.68-29.68s-13.29-29.68-29.68-29.68-29.68 13.29-29.68 29.68 13.29 29.68 29.68 29.68z" fill="#4d61fc"/><path d="m799.321 984.639c16.39 0 29.68-13.29 29.68-29.68s-13.29-29.68-29.68-29.68-29.68 13.29-29.68 29.68 13.29 29.68 29.68 29.68z" fill="#fff" opacity=".4"/><path d="m793.849 967.411-9.99-9.99c-.51-.51-.51-1.39 0-1.97l2.63-2.63c.51-.51 1.39-.51 1.97 0l6.42 6.42 15.46-15.54c.51-.51 1.39-.51 1.97 0l2.63 2.63c.51.51.51 1.39 0 1.97l-19.11 19.11c-.6.58-1.47.58-1.98 0z" fill="#fff"/><path d="m994.881 941.93h-129.52c-2.41 0-4.3-1.97-4.3-4.3 0-2.41 1.97-4.3 4.3-4.3h129.52c2.41 0 4.3 1.97 4.3 4.3.08 2.4-1.89 4.3-4.3 4.3z" fill="#fff"/><path d="m997.021 958.78h-133.7c-1.24 0-2.26-1.02-2.26-2.26s1.02-2.26 2.26-2.26h133.7c1.24 0 2.26 1.02 2.26 2.26.07 1.24-.95 2.26-2.26 2.26z" fill="#fff"/><path d="m969.051 972.78h-105.73c-1.24 0-2.26-1.02-2.26-2.26s1.02-2.26 2.26-2.26h105.73c1.24 0 2.26 1.02 2.26 2.26s-1.02 2.26-2.26 2.26z" fill="#fff"/><path d="m1191.57 747.54c0-3.95.78-7.73 2.14-11.2-32.28-20.64-73.82-28.76-112.09-28.76s-79.81 8.12-112.09 28.76c1.36 3.47 2.14 7.24 2.14 11.2 0 16.84-13.62 30.48-30.43 30.55.75 49.34 5.58 108.13 29.27 153.24 24.76 47.14 65.34 81.84 99.61 98.01h11.49c34.37-15.54 85.53-49.33 111.1-98.01 23.69-45.11 28.52-103.9 29.27-153.24-16.8-.07-30.41-13.71-30.41-30.55z" fill="#4d61fc"/><path d="m1191.57 747.54c0-3.95.78-7.73 2.14-11.2-32.28-20.64-73.82-28.76-112.09-28.76s-79.81 8.12-112.09 28.76c1.36 3.47 2.14 7.24 2.14 11.2 0 16.84-13.62 30.48-30.43 30.55.75 49.34 5.58 108.13 29.27 153.24 24.76 47.14 65.34 81.84 99.61 98.01h11.49c34.37-15.54 85.53-49.33 111.1-98.01 23.69-45.11 28.52-103.9 29.27-153.24-16.8-.07-30.41-13.71-30.41-30.55z" fill="#21252b"/><path d="m1180.08 747.54c0-3.95.78-7.73 2.14-11.2-32.28-20.64-73.82-28.76-112.09-28.76s-79.81 8.12-112.09 28.76c1.36 3.47 2.14 7.24 2.14 11.2 0 16.84-13.62 30.48-30.43 30.55.75 49.34 5.58 108.13 29.27 153.24 25.57 48.68 76.73 82.47 111.1 98.01 34.37-15.54 85.53-49.33 111.1-98.01 23.69-45.11 28.52-103.9 29.27-153.24-16.8-.07-30.41-13.71-30.41-30.55z" fill="#858990"/><path d="m1180.07 747.54c0-3.95.78-7.73 2.14-11.2-32.28-20.64-73.82-28.76-112.09-28.76s-79.81 8.12-112.09 28.76c1.36 3.47 2.14 7.24 2.14 11.2 0 16.84-13.62 30.48-30.43 30.55.75 49.34 5.58 108.13 29.27 153.24 25.57 48.68 76.73 82.47 111.1 98.01 34.37-15.54 85.53-49.33 111.1-98.01 23.69-45.11 28.52-103.9 29.27-153.24-16.81-.07-30.41-13.71-30.41-30.55z" fill="#000" opacity=".1"/><path d="m1070.12 1003.87c-32.64-16.64-71.16-45.86-90.78-83.22-19.47-37.04-24.7-86.13-26.18-125.1 17.44-8.59 29.58-26.42 29.95-47.01 23.9-11.68 54.2-18.03 87.01-18.03s63.11 6.34 87.01 18.03c.39 20.6 12.52 38.42 29.95 47.01-1.48 38.95-6.73 88.04-26.18 125.1-19.61 37.37-58.13 66.58-90.78 83.22z" fill="#4d61fc"/><path d="m1070.12 1003.87c-32.64-16.64-71.16-45.86-90.78-83.22-19.47-37.04-24.7-86.13-26.18-125.1 17.44-8.59 29.58-26.42 29.95-47.01 23.9-11.68 54.2-18.03 87.01-18.03s63.11 6.34 87.01 18.03c.39 20.6 12.52 38.42 29.95 47.01-1.48 38.95-6.73 88.04-26.18 125.1-19.61 37.37-58.13 66.58-90.78 83.22z" fill="#fff"/><path d="m1070.12 995.16c-30.55-15.58-66.62-42.93-84.991-77.92-18.21-34.69-23.13-80.63-24.51-117.1 16.33-8.05 27.68-24.73 28.05-44.02 22.381-10.95 50.751-16.88 81.451-16.88s59.09 5.93 81.45 16.88c.36 19.27 11.73 35.97 28.05 44.02-1.38 36.47-6.29 82.43-24.51 117.1-18.36 34.98-54.42 62.33-84.99 77.92z" fill="#4d61fc"/><path d="m1070.12 995.16c-30.55-15.58-66.62-42.93-84.991-77.92-18.21-34.69-23.13-80.63-24.51-117.1 16.33-8.05 27.68-24.73 28.05-44.02 22.381-10.95 50.751-16.88 81.451-16.88s59.09 5.93 81.45 16.88c.36 19.27 11.73 35.97 28.05 44.02-1.38 36.47-6.29 82.43-24.51 117.1-18.36 34.98-54.42 62.33-84.99 77.92z" fill="#fff" opacity=".5"/><path d="m1187.1 795.599c0-.01 0-.03 0-.03-.45-.22-.88-.47-1.32-.71.43.25.88.49 1.32.74z" fill="#ffd16e"/><path d="m1135.53 850.081h-51.94v-51.94c0-2.53-2.05-4.58-4.58-4.58h-17.78c-2.53 0-4.58 2.05-4.58 4.58v51.94h-51.94c-2.53 0-4.58 2.05-4.58 4.58v17.78c0 2.53 2.05 4.58 4.58 4.58h51.94v51.94c0 2.53 2.05 4.58 4.58 4.58h17.78c2.53 0 4.58-2.05 4.58-4.58v-51.94h51.94c2.53 0 4.58-2.05 4.58-4.58v-17.78c0-2.53-2.05-4.58-4.58-4.58z" fill="#fff"/><path d="m1141.43 850.081h-51.94v-51.94c0-2.53-2.05-4.58-4.58-4.58h-17.78c-2.53 0-4.58 2.05-4.58 4.58v51.94h-51.94c-2.53 0-4.58 2.05-4.58 4.58v17.78c0 2.53 2.05 4.58 4.58 4.58h51.94v51.94c0 2.53 2.05 4.58 4.58 4.58h17.78c2.53 0 4.58-2.05 4.58-4.58v-51.94h51.94c2.53 0 4.58-2.05 4.58-4.58v-17.78c0-2.53-2.06-4.58-4.58-4.58z" fill="#4d61fc"/><path d="m1141.43 850.081h-51.94v-51.94c0-2.53-2.05-4.58-4.58-4.58h-17.78c-2.53 0-4.58 2.05-4.58 4.58v51.94h-51.94c-2.53 0-4.58 2.05-4.58 4.58v17.78c0 2.53 2.05 4.58 4.58 4.58h51.94v51.94c0 2.53 2.05 4.58 4.58 4.58h17.78c2.53 0 4.58-2.05 4.58-4.58v-51.94h51.94c2.53 0 4.58-2.05 4.58-4.58v-17.78c0-2.53-2.06-4.58-4.58-4.58z" fill="#21252b" opacity=".2"/><path d="m1135.53 850.081h-51.94v-51.94c0-2.53-2.05-4.58-4.58-4.58h-17.78c-2.53 0-4.58 2.05-4.58 4.58v51.94h-51.94c-2.53 0-4.58 2.05-4.58 4.58v17.78c0 2.53 2.05 4.58 4.58 4.58h51.94v51.94c0 2.53 2.05 4.58 4.58 4.58h17.78c2.53 0 4.58-2.05 4.58-4.58v-51.94h51.94c2.53 0 4.58-2.05 4.58-4.58v-17.78c0-2.53-2.05-4.58-4.58-4.58z" fill="#4d61fc"/><path d="m552.95 447.269c-.09 0-2.35-.28-3.86-1.98l.75-.85c1.41 1.6 3.39 1.79 3.39 1.79z" fill="#000" opacity=".15"/><path d="m552.71 432.56c.16 0 .29-.13.29-.29s-.13-.29-.29-.29-.29.13-.29.29.13.29.29.29z" fill="#fff"/><path d="m460.87 480.6-64.4 70.8c-4.9 5.37-4.99 13.65-.28 19.21l41.8 48.49 15.91-11.39-29.19-45.47 54.23-51.12z" fill="#4d61fc"/><path d="m466.991 652.619-.38 5.84-1.69.56-.94.28-3.2 1.04c-.94.28-1.88-.28-2.07-1.22 0-.09 0-.28 0-.38 0-.56.28-1.13.75-1.41l5.74-3.58.75-.47z" fill="#fb9c9c"/><path d="m466.989 661.28-5.46 2.92c-.85.47-1.88.09-2.26-.85-.28-.66-.09-1.41.38-1.88l6.78-6.12z" fill="#fb9c9c"/><path d="m466.609 657.889.38-5.27-1.22.75-.75.47-5.74 3.58c-.47.28-.75.85-.75 1.41v.38c.19.94 1.22 1.51 2.07 1.22l.28-.09-1.32 1.22c-.47.47-.66 1.22-.38 1.88.38.94 1.41 1.32 2.26.85l5.46-2.92z" fill="#000" opacity=".15"/><path d="m473.96 638.779-20.05-31.07-15.16 10.73 15.06 14.88c1.22 1.22 2.07 2.92 2.26 4.71l.19 1.69c.47 3.67 2.35 7.06 5.18 9.41l3.48 3.01c.94.85 1.32 2.07.94 3.2l-2.45 9.23c-.19.66.19 1.32.75 1.69.66.38 1.6.09 1.98-.56l8.47-18.45c1.23-2.83.95-5.93-.65-8.47z" fill="#fb9c9c"/><path d="m465.761 653.369-.75.47c.09.47.09 1.04 0 1.69l-.09.28-5.37 4.43s.56.28 1.41 0l.28-.19 3.2-2.64-.56 1.98-1.22 4.24 1.13-.66 1.04-3.86.94-3.3c.28-1.03.18-1.88-.01-2.44z" fill="#000" opacity=".15"/><path d="m463.881 622.488 2.45 3.76-11.58 8.29-3.2-3.49z" fill="#3f4249"/><path d="m463.131 622.019 3.199 4.9c.19.38.66.47 1.04.19.28-.19.38-.66.19-.94l-3.2-4.9c-.19-.28-.659-.47-.939-.19-.48.18-.57.56-.29.94z" fill="#000"/><path d="m588.439 870.76 12.52 96.22c.47 3.11 1.51 6.03 3.01 8.85l20.62 38.7-4.8 6.59-18.83-9.42-16.76-30.32c.09-5.18-.66-10.26-2.26-15.16l-25.89-95.47h32.39z" fill="#fb9c9c"/><path d="m600.87 982.891c-1.51-2.73-4.33-9.51-4.9-12.62l-13.56-74.471c-.66-3.67-3.2-6.78-6.59-8.19l-17.14-7.06-.75-2.82 32.48 7.63 10.64 81.531c.47 3.11 1.51 6.029 3.01 8.849l20.62 38.7-2.92 4.9z" fill="#000" opacity=".15"/><path d="m637.779 1020.55-13.28-6.03c-7.16 1.13-14.4-1.51-19.02-7.16l-21.37-25.991c-3.86 8.29-5.271 17.51-3.951 26.551l3.111 21.56h2.449l.661-22.13c.09-1.6 2.07-2.26 3.11-1.04l13.09 16.01c3.77 4.52 9.32 7.16 15.16 7.16h23.729c1.6 0 2.64-1.6 2.07-3.11-1.06-2.52-3.129-4.59-5.759-5.82z" fill="#4d61fc"/><path d="m485.25 967.74c-1.04 8.94-1.51 17.98-1.41 27.02l.19 10.73c-.19 4.71-4.05 8.47-8.76 8.47h-1.41c-5.37 0-9.41-4.71-8.66-9.98l2.45-12.71c1.22-6.5 1.69-13.09 1.32-19.68l-6.97-124.18 33.61 9.6z" fill="#fb9c9c"/><path d="m495.04 861.53-9.79 106.2c-.47 3.67-.75 7.34-1.04 11.11v.09c-.28 5.27-.47 10.54-.38 15.82l.19 10.73c-.19 4.61-3.77 8.19-8.29 8.47 4.14-3.2 3.77-8.38 3.86-12.24l7.34-128.7c.19-3.95-1.98-7.63-5.65-9.32l-18.92-8.66-.09-1.69z" fill="#000" opacity=".15"/><path d="m479.319 986.469c3.01 0 5.55-2.82 5.84 0 .09 1.04.19 2.26.19 3.39l.09 23.631c-.09 4.14-1.32 8.19-3.48 11.77l-.47.85c-1.32 2.07-3.67 3.39-6.21 3.39h-7.25c-3.3 0-6.12-2.17-6.97-5.18-.94-3.48-1.04-7.16-.38-10.73l6.03-25.331c.19-.94.47-1.88.75-2.92.75-2.35 3.01 1.04 5.65 1.04h6.21z" fill="#4d61fc"/><path d="m479.319 987.409c3.01 0 5.55-3.86 5.84-.94.09 1.04.19 2.26.19 3.39l.09 23.631c-.09 4.14-1.32 8.19-3.48 11.77l-.47.85c-1.32 2.07-3.67 3.39-6.21 3.39h-7.25c-3.3 0-6.12-2.17-6.97-5.18-.94-3.48-1.04-7.16-.38-10.73l6.03-25.331c.19-.94.47-1.88.75-2.92.75-2.35 3.01 1.98 5.65 1.98h6.21z" fill="#000" opacity=".15"/><path d="m485.35 1001.63-.56-.66c-2.17-2.451-6.12-1.221-6.59 1.98l-4.14 26.64h-4.61l.94-26.17c.09-3.3-3.77-5.181-6.31-3.01l3.95-16.101c.38-1.41 1.88-2.26 3.3-1.69l2.17.85c2.07.85 4.43.85 6.59.09l2.17-.75c1.6-.56 3.3.66 3.3 2.35v16.481z" fill="#4d61fc"/><path d="m553.139 432.679-1.51-12.8-7.16-16.66h-27.21l-15.25 6.21 10.64 43.4-9.42 16.19-29.19 7.16 43.78 15.25 30.79-15.72-14.4-3.11-.85-11.39h3.95c8.1 0 13.46-4.9 15.63-14.22l1.04-5.08v-.19c1.79-.09 3.2-1.69 3.01-3.58-.09-1.22-.85-2.26-1.88-2.73-.94-.47-1.69-1.51-1.97-2.73z" fill="#fb9c9c"/><path d="m570.74 530.13c.28 1.32.56 5.65.56 6.97 0 2.07-.28 4.05-.85 6.03-1.04 3.58-3.01 6.78-5.55 9.41l-2.92 3.11c-.56.56-.85 1.32-.85 2.17l.28 75.23-86.41-2.17-16.49-100.28-1.51-40.86c0-6.59 4.52-12.24 14.5-13.65l18.64-3.77c7.72 7.44 33.63 8.81 49.54 1.47l13.44 2.96c.08.02.15.04.23.06 9.44 2.45 16.08 10.9 16.37 20.65z" fill="#4d61fc"/><path d="m594.969 535.15-17.37 19.22-7.58-61.22c-.95-7.69-6.58-13.99-14.11-15.8l-10.5-2.37-4.95 43.37 17.74 70.03c2.72 10.72 16.87 13.12 22.97 3.89l29.78-45.07z" fill="#4d61fc"/><path d="m564.01 484.81c1.74 2.34 3.7 4.89 5.86 7.42-.06-.35-.13-.7-.21-1.04-1.82-2.16-3.55-4.41-5.25-6.68-1.53-2.05-3.08-4.08-4.9-5.83-.46-.22-.94-.41-1.43-.59 2.16 1.8 3.95 4.06 5.93 6.72z" fill="#21252b"/><path d="m582.35 579.65c-.76-1.25-1.52-2.51-2.27-3.77-.87-1.52-1.7-3.06-2.43-4.67-2.96-6.48-4.09-13.28-1.94-20.57.3-1.04.64-2.07 1.05-3.07l-.14-1.16c-1.83 3.99-2.82 8.28-2.61 12.97.25 5.48 1.88 10.55 4.6 15.12.42.71.84 1.42 1.27 2.12.67 1.15 1.35 2.28 2.05 3.4 1.18 1.93 2.36 3.85 3.53 5.77l.4-.6c-.1-.16-.2-.33-.3-.5-1.07-1.68-2.15-3.35-3.21-5.04z" fill="#21252b"/><path d="m594.87 566.32-.28-.17c-2.72-1.66-4.46-3.74-5.32-6.33-.89-2.8-.6-5.19.89-7.32 1.68-2.36 4.08-3.36 6.94-2.92 1.79.25 3.49.88 5.08 1.84 1.43.87 2.71 2 3.79 3.33l.29-.44c-1.09-1.32-2.38-2.45-3.82-3.32-1.59-.97-3.38-1.63-5.27-1.9-2.89-.45-5.56.52-7.43 3.14-1.7 2.42-1.81 5.07-.94 7.74.97 2.99 2.98 5.05 5.53 6.6.09.06.2.12.28.17.85.5 1.71.94 2.58 1.3l.28-.43c-.86-.35-1.72-.77-2.6-1.29z" fill="#21252b"/><path d="m582.001 563.12c-1.01-2.93-1.41-6.23-.86-9.44.35-1.79 1.01-3.58 2-5.33.07-.13.16-.24.24-.37l-1.52 1.68c-.54 1.21-.93 2.47-1.17 3.75-.55 2.65-.43 5.38.32 8.15.81 3.23 2.38 6.211 4.46 8.471 1.96 2.12 4.15 3.86 6.51 5.3.09.06.19.099.28.159l.31-.469c-.15-.09-.31-.171-.46-.261-4.46-2.73-8.15-6.32-10.11-11.64z" fill="#21252b"/><path d="m590.75 541.05h-.01c-.14.05-.28.1-.42.15-.46.17-.911.37-1.351.59l-1.199 1.33c.91-.63 1.87-1.14 2.88-1.52 1.91-.66 4.059-.84 6.459-.5 3.32.48 6.44 1.39 9.36 2.73l-1.909-1.44c-2.78-1.08-5.73-1.78-8.87-2-1.73-.13-3.39.11-4.94.66z" fill="#21252b"/><path d="m565.58 508.72c-6.01 2.26-10.89 5.06-14.95 8.57-2.96 2.58-5.62 5.88-7.95 9.83l.17.66c1.97-3.39 4.64-7.09 8.11-10.14 4.43-3.85 9.46-6.47 14.79-8.47 2-.75 3.99-1.48 5.98-2.2l-.06-.49c-2.03.74-4.05 1.48-6.09 2.24z" fill="#21252b"/><path d="m570.791 517.409c.74-.06 1.47-.12 2.21-.17l-.08-.62c-1.35.1-2.71.23-4.07.43-6.63.97-12.18 4.17-16.72 9.41-2.05 2.36-3.77 4.94-5.45 7.53-.53.84-1.08 1.67-1.64 2.48l.16.64c2.5-3.66 4.77-7.5 7.78-10.8 4.94-5.37 10.85-8.32 17.81-8.9z" fill="#21252b"/><path d="m541.67 508.01.37-.66c1.4-2.32 2.25-9.5 3.59-12.77.96-2.34 1.57-4.47 2.26-6.82.36-1.2.72-2.4 1.13-3.6.19-.57.35-1.16.54-1.74.55-1.9 1.07-3.68 2.15-5.32.13-.19.28-.38.44-.55l-.55-.13c-.1.12-.2.24-.29.38-1.48 2.22-1.97 4.76-2.76 7.2-1.18 3.58-2.07 7.19-3.5 10.66-1.09 2.69-1.8 9.21-3.24 12.05l-.15 1.31s.01 0 .01-.01z" fill="#21252b"/><path d="m554.299 550.73c1-.29 1.69-.25 2.26.1.39.24.77.64 1.15 1.24 1.02 1.67 1.25 3.67 1.47 5.6l.12.98c.57 4.54 1.2 9.38 2.16 14.21.3 1.43.6 2.85.93 4.28 1.18 5.52 2.42 11.23 2.89 17.04.07.93.17 1.86.25 2.79.17.07.34.14.51.2-.1-1.02-.19-2.04-.27-3.06-.59-7.31-2.35-14.31-3.82-21.38-.94-4.68-1.57-9.42-2.15-14.17-.3-2.31-.4-4.73-1.66-6.77-.41-.65-.82-1.12-1.31-1.42-.7-.43-1.53-.46-2.66-.15-1.79.5-3.44 1.35-5.06 2.28l.13.53c1.64-.95 3.27-1.79 5.06-2.3z" fill="#21252b"/><path d="m571.65 580.11c-1.53-5.43-3.251-10.81-3.791-16.52-.65-7.05.521-13.91 3.201-20.63 1.27-3.24 2.78-6.43 3.39-9.9.43-2.48-.25-4.41-2.02-5.49-.45-.28-.971-.5-1.581-.66-3.26-.86-6.399-.34-9.469 1.54-3.14 1.95-5.601 4.58-7.781 7.54-.66.87-1.3 1.75-1.93 2.62l-.209.29c-1.41 1.86-2.88 3.65-4.44 5.34l.18.72c1.4-1.47 2.72-3.03 3.94-4.72.09-.12.179-.25.269-.37.79-1.02 1.531-2.03 2.241-3.02.26-.36.52-.71.78-1.05 1.39-1.78 2.88-3.48 4.66-4.91 2.63-2.15 5.42-3.85 8.84-3.73 1.09.01 2.14.14 3.16.5.37.13.699.29 1.009.48 1.54.94 2.21 2.58 1.88 4.65-.42 2.68-1.479 5.16-2.479 7.67-1.98 4.98-3.751 10.03-4.151 15.4-.3 4.03-.179 7.98.591 11.9.89 4.54 2.23 8.92 3.45 13.35 1.21 4.44 1.94 9 2.48 13.63.1.91.21 1.83.33 2.74.19-.05.37-.11.55-.17-.19-1.48-.381-2.97-.581-4.46-.57-4.33-1.369-8.56-2.519-12.74z" fill="#21252b"/><path d="m602.85 541.09v.02l.51.39c0-.01 0-.01 0-.02z" fill="#21252b"/><path d="m584.5 587.24-.32.48z" fill="#21252b"/><path d="m608.428 545.291c0 .01-.01.02-.01.03l.51.39c0-.01.01-.02.01-.03z" fill="#21252b"/><path d="m578.109 595.54c-.01-.01-.01-.02-.02-.03-.17.13-.35.25-.54.38l.02.02c.18-.12.36-.24.54-.37z" fill="#21252b"/><path d="m596.408 536.23v.01l.46.351v-.01z" fill="#21252b"/><path d="m591.849 576.121-.47.72z" fill="#21252b"/><path d="m456.82 515.82-35.31 37.47c-1.04 1.04-1.13 2.64-.28 3.86l3.48 4.99 33.71-31.63z" fill="#000" opacity=".15"/><g fill="#21252b"><path d="m474.75 629.39c.63.52 1.26 1.03 1.89 1.54l1.04.03c-1.04-.84-2.08-1.68-3.1-2.55z"/><path d="m468.759 484.24c.7 0 1.39-.24 2.07-.74 1.11-.8 1.49-2.13 1.81-3.42.36-1.42.32-2.84.15-4.25l-.55.11c.01.08.02.16.03.24.24 1.94.04 3.79-.8 5.52-.61 1.24-1.5 1.87-2.56 1.87-.51 0-1.07-.15-1.64-.46-1.13-.62-1.85-1.62-2.51-2.73-.37-.59-.69-1.21-.99-1.83-.17.09-.33.19-.49.29.7 1.51 1.52 2.94 2.72 4.1.88.85 1.83 1.3 2.76 1.3z"/><path d="m568.848 597.89c0-.01-.01-.01-.01-.02-.23-.03-.46-.07-.69-.12 0 .01.01.01.01.02.24.05.46.09.69.12z"/><path d="m551.099 582.88c-2.28.51-4.3 1.54-6.21 2.9-5.1 3.57-10.19 7.269-14.84 11.509-3.47 3.15-6.42 6.8-8.54 11.19-2.01 4.18-3.62 8.53-5.82 12.56-1.83 3.4-4.03 6.43-6.51 9.32-.38.44-.75.901-1.13 1.351l.77.019c4.35-5.07 7.95-10.67 10.51-17.06.58-1.45 1.19-2.9 1.84-4.32.07-.16.15-.319.22-.479 1.2-2.52 2.58-4.95 4.34-7.13 2.51-3.09 5.33-5.83 8.44-8.21 3.96-3.05 7.84-6.18 12.02-8.9 2.24-1.45 4.66-2.361 7.26-2.521.17-.01.33-.01.48-.01.97 0 1.88.151 2.76.421-.07-.23-.14-.46-.21-.7-.79-.2-1.6-.3-2.43-.3-.96 0-1.95.13-2.95.36z"/><path d="m536.869 490.52c.62.29 1.2.46 1.72.46 1 0 1.85-.58 2.51-1.82 1.15-2.08 1.5-4.46 1.87-6.81.33-2.13.39-4.22.08-6.27l-.47.21c.27 1.88.24 3.87-.09 6.01l-.02.17c-.35 2.22-.7 4.51-1.79 6.47-.56 1.04-1.24 1.55-2.07 1.55-.45 0-.95-.13-1.5-.41-2.39-1.14-4.37-3.11-6.09-6.03-.65-1.1-1.16-2.15-1.55-3.18-.17.04-.35.07-.52.1.43 1.15.98 2.26 1.61 3.34 1.57 2.65 3.56 4.88 6.31 6.21z"/><path d="m525.129 536.57c-4.94 4.3-8.55 9.63-11.21 15.76-1.72 3.89-3.77 7.54-6.66 10.63-3.03 3.2-6.54 5.42-10.52 6.88-3.3 1.25-6.69 2.059-9.94 3.449-3.77 1.61-6.71 4.031-7.61 8.551-.58 2.87.18 5.559 1.33 8.079 2.71 6.01 5.79 11.8 9.64 17.05 1.49 2.02 3.31 3.591 5.55 4.461.81.31 1.6.46 2.36.46 1.9 0 3.64-.91 5.26-2.21 1.72-1.37 2.92-3.25 4.13-5.09 3.57-5.57 8.23-9.951 13.29-13.861 5.11-3.94 9.94-8.21 14.21-13.12 1.89-2.16 3.83-4.249 5.76-6.339 3.21-3.45 6.86-6.26 10.84-8.56-.04-.17-.07-.341-.1-.491-4.22 2.43-7.94 5.361-11.08 8.721-2.06 2.24-3.93 4.249-5.77 6.349-3.88 4.46-8.51 8.72-14.13 13.06-6.01 4.63-10.27 9.081-13.41 13.981l-.15.219c-1.13 1.71-2.29 3.49-3.89 4.75-1.79 1.43-3.37 2.101-4.94 2.101-.71 0-1.45-.151-2.18-.421-2.02-.79-3.82-2.229-5.33-4.289-3.43-4.66-6.47-10.061-9.6-16.961-1.37-3.02-1.77-5.419-1.3-7.779.76-3.83 3.02-6.36 7.32-8.19 1.84-.8 3.77-1.41 5.65-2 1.41-.45 2.85-.91 4.27-1.45 4.22-1.55 7.72-3.84 10.71-7 2.58-2.75 4.72-6.171 6.75-10.761 2.79-6.42 6.41-11.529 11.09-15.589l1.49-1.31c3.27-2.9 6.68-5.88 10.3-8.4 1.56-1.06 3.12-2.04 4.76-2.73l-.13-.5c-1.73.71-3.35 1.74-4.93 2.82-4.18 2.9-7.98 6.36-11.83 9.73z"/><path d="m544.049 534.489c-2.11.12-4.07.86-5.94 1.83-3.85 2.05-7.37 4.62-10.49 7.78-3.25 3.27-5.43 7.33-7.03 11.73-2.41 6.8-5.85 12.9-10.2 18.46-.98 1.24-1.67 2.67-2.34 4.13-.62 1.34-1.08 2.69-.15 4.08.85 1.27 2.07 1.65 3.39 1.65.15 0 .3 0 .45-.01 2.69-.17 5.16-1.19 7.49-2.59 4.02-2.37 7.25-5.74 10.26-9.41 4.2-5.11 8.54-10.13 13.18-14.81 2.03-2.03 4.16-3.95 6.13-6.07l-.14-.54c-1.31 1.41-2.71 2.76-4.05 4.07-.78.73-1.53 1.45-2.28 2.21-4.05 4.07-8.24 8.78-13.21 14.84-2.63 3.19-5.89 6.78-10.13 9.31-2.63 1.57-4.93 2.37-7.28 2.52-.13.01-.27.01-.41.01-1.38 0-2.33-.45-2.98-1.43-.73-1.09-.49-2.14.18-3.6.63-1.38 1.32-2.82 2.28-4.03 4.47-5.71 7.92-11.97 10.28-18.6 1.77-4.86 4.02-8.64 6.91-11.55 3.03-3.05 6.52-5.65 10.37-7.69 2.15-1.1 3.98-1.66 5.76-1.77.11-.01.18-.01.28-.01s.21.02.31.03l-.14-.55c-.06 0-.12-.01-.18-.01-.1 0-.21.01-.32.02z"/><path d="m525.4 503.589c.07.43.1.87.13 1.3.02.43.03.86.03 1.29 0 .23.01.46 0 .68 0 .07-.01.13-.01.2-.49 7.69-6.42 14.01-13.97 14.04-.13 0-.27 0-.39 0-.38 0-.74 0-1.1 0-1.05 0-2.1.02-3.15.21-2.57.45-4.14 1.99-4.81 4.63-.33 1.28-.48 2.62-.45 3.95.01.41 0 .82 0 1.23v.44c-.02 2.87-.22 5.71-.65 8.57-1.08 7.27-5.09 11.93-11.35 14.66-3.84 1.65-7.81 2.99-11.61 4.87-5.21 2.53-9.57 6.15-12.98 11l.12.74c.33-.49.67-.98 1.02-1.46 2.48-3.42 5.55-6.03 9.03-8.15 4.6-2.79 9.68-4.34 14.53-6.47 4.43-1.95 8.15-4.8 10.19-9.63 1.17-2.82 1.64-5.84 1.99-8.89.2-1.78.14-3.57.14-5.35 0-.2 0-.39 0-.59.01-1.17.07-2.33.26-3.49.29-1.84.75-3.08 1.47-3.93.05-.06.1-.12.16-.18.08-.09.17-.17.26-.24.04-.04.09-.07.13-.11.99-.79 2.38-1.1 4.32-1.24 2.23-.15 4.45.07 6.66-.56 6.06-1.67 10.58-7.88 10.65-14.56 0-.31-.02-.62-.02-.92 0-.17 0-.35-.01-.52-.2-4.21-1.44-8.15-2.94-12.01-1.4-3.6-2.91-7.15-4.35-10.72-.2.01-.39.03-.59.04.78 1.92 1.61 3.81 2.4 5.72 2.06 5.02 4.07 10.01 4.89 15.45z"/><path d="m541.33 507.459c-2.54 3.72-5.04 7.48-7.89 10.92-2.46 3-5.08 5.83-7.91 8.46-3.37 3.11-7.15 5.68-10.29 9.1-2 2.16-3.57 4.6-4.87 7.25-1.58 3.22-2.93 6.59-4.92 9.55-2.62 3.91-5.9 6.87-10.24 8.38-3.89 1.37-7.89 2.27-11.73 3.77-3.59 1.41-7 3.17-9.68 6.11-3.36 3.7-5.23 8.13-5.95 13.19-.1.7-.16 1.39-.19 2.07l1.31 7.94c.39.96.85 1.9 1.4 2.82 1.09 1.82 2.39 3.44 3.73 5.03 3.26 3.85 6.05 8.04 8.72 12.37 1.37 2.24 2.79 4.49 4.4 6.62 2.13 2.84 5.21 4.44 8.46 4.44 1.07 0 2.14-.17 3.22-.52.99-.32 1.92-.72 2.82-1.16.02-.01.05-.02.07-.03 4.07-1.98 7.33-5.08 9.82-9.3 2.3-3.94 4.14-8.17 6.74-11.91 2.76-3.96 6.13-7.23 9.67-10.35 3.61-3.17 7.22-6.34 10.75-9.63 2.85-2.64 5.66-5.37 8.95-7.37 1.97-1.18 3.99-2.01 6.08-2.46-.05-.21-.1-.42-.15-.62-3.89.85-7.36 2.92-10.52 5.77-6.2 5.59-12.46 11.13-18.65 16.76-4.23 3.86-7.58 8.54-10.23 13.8-1.9 3.8-3.79 7.67-6.86 10.6-3.32 3.21-7.08 5.56-11.7 5.74-.11 0-.21 0-.32 0-3.03 0-5.44-1.55-7.43-3.89-1.27-1.5-2.35-3.16-3.36-4.88-3.53-5.95-7.52-11.51-11.87-16.79-2.11-2.56-3.62-5.48-4.22-8.86-.68-3.93-.02-7.71 1.26-11.4 2.42-7.03 7.41-11.07 13.79-13.51 3.79-1.44 7.72-2.37 11.52-3.67 5.62-1.94 9.5-5.96 12.39-11.27 1.44-2.65 2.61-5.46 3.97-8.15 2.16-4.24 5.32-7.5 8.91-10.35 4.02-3.25 7.9-6.66 11.32-10.61 3.37-3.88 6.45-8.02 9.28-12.36.25-.38.49-.72.73-1.04l.15-1.33c-.01.02-.02.03-.03.04 0 0-.31.54-.45.73z"/><path d="m480.6 478.98c-.19 3.93-.74 7.78-2.96 11.12-1.9 2.87-4.6 4.22-7.44 4.22-1.85 0-3.78-.58-5.56-1.7-2.96-1.87-5.02-4.66-6.59-7.81-.12-.24-.24-.47-.35-.71l-.44.49c1.07 2.02 2.29 3.96 3.79 5.66 2.53 2.86 5.5 4.7 9.1 4.7.5 0 .99-.04 1.51-.11 3.21-.46 5.5-2.5 7.12-5.43 1.67-3.07 2.23-6.51 2.37-10 .08-1.74.04-3.5-.05-5.25l-.54.11c.07 1.56.11 3.13.04 4.71z"/><path d="m481.129 495.759c-2.21 2.93-5.15 4.46-8.63 4.7-.36.04-.71.05-1.07.05-4.43 0-8.15-2.14-11.49-5.21-2.32-2.14-4.08-4.73-5.65-7.46l-.35.38c.41.71.83 1.41 1.27 2.09 2.82 4.41 6.35 7.89 11.09 9.78 1.76.69 3.55 1.04 5.32 1.04 4.7 0 9.12-2.52 11.7-7.75 1.78-3.54 2.57-7.39 2.97-11.33.3-3.03.51-6.07.74-9.11l-.6.12c-.23 3.53-.41 7.05-.93 10.53-.64 4.4-1.68 8.61-4.37 12.17z"/><path d="m488.019 497.46c-2.19 5.94-6.12 9.06-13 9.33-.27.02-.52.02-.79.02-6.34 0-11.63-2.96-16.49-7.1-2.73-2.33-4.89-5.15-6.83-8.15l-.38.42c.6.91 1.22 1.8 1.86 2.67 5.02 6.71 11.24 11.44 19.33 12.61 1.08.16 2.14.25 3.19.25 3.97 0 7.69-1.26 10.75-4.62 1.73-1.93 2.67-4.39 3.49-6.87 1.55-4.52 2.39-9.26 3.27-13.95.28-1.5.59-2.98.95-4.45-.16-.23-.31-.46-.45-.7-.57 2.35-1.06 4.72-1.5 7.12-.86 4.54-1.79 9.07-3.4 13.42z"/><path d="m505.44 501.33h.44c3.79 0 5.96-2.64 5.6-7-.3-3.44-1.64-6.35-4.32-8.42-.73-.56-1.53-.84-2.33-.84-1.14 0-2.24.56-3.03 1.62-2.23 2.98-2.71 6.39-2.02 10.01.47 2.45 2.56 4.63 5.66 4.63zm-3.24-14.33c.67-.91 1.62-1.42 2.63-1.42.71 0 1.41.24 2.02.73 2.44 1.87 3.83 4.58 4.13 8.06.18 2.14-.28 3.87-1.31 5-.88.94-2.19 1.45-3.79 1.45-.17.02-.3.02-.44.02-2.99 0-4.79-2.19-5.19-4.24-.71-3.75-.08-6.9 1.95-9.6z"/><path d="m538.29 614.719c-.39 0-.79.13-1.21.38-2.22 1.28-3.95 6.71-.92 9.07.53.44 1.11.67 1.78.69 1.44-.13 2.34-1.21 2.96-2.36 1.2-2.16.63-5.28-1.05-7-.52-.52-1.03-.78-1.56-.78zm2.17 7.54c-.73 1.34-1.54 2.01-2.57 2.11-.48-.02-.96-.21-1.43-.58-1.38-1.08-1.49-2.79-1.42-3.71.12-1.89 1.14-3.89 2.28-4.56.36-.19.68-.3.97-.3.4 0 .8.21 1.19.62 1.61 1.65 2.05 4.52.98 6.42z"/><path d="m434.899 537.329c.51-3.72.21-7.43-.53-11.06-.86-4.28-2-8.47-3.74-12.41l-.49.54c2.21 5.04 3.53 10.41 4.19 16.04.44 3.78-.05 7.46-.85 11.15-.73 3.28-1.7 6.53-2.05 9.91-.16 1.58-.25 3.14-.27 4.68l.65-.62c.07-2.99.46-5.95 1.12-8.91.7-3.08 1.54-6.15 1.97-9.32z"/><path d="m435.559 585.9c3.27 3.97 6.43 8.02 9.89 11.81.19.21.38.43.58.64.24.25.46.52.7.77 1.31 1.39 2.69 2.72 4.16 3.92l-1.14-1.77c-2.95-2.62-5.53-5.66-8.06-8.8-2.41-2.97-4.83-5.96-7.21-8.97-4.11-5.17-6.45-11.18-7.56-17.79l-.78-1.22c.63 4.34 1.72 8.58 3.66 12.59 1.53 3.24 3.55 6.13 5.76 8.82z"/><path d="m427.58 541.59c.99-4.05 1.76-8.11 1.49-12.31-.24-3.9-.99-7.62-2.42-11.04l-.47.52c1.47 3.63 2.24 7.48 2.36 11.56.13 3.82-.63 7.46-1.5 11.1-1.16 4.79-1.91 9.64-1.66 14.6.08 1.76.2 3.52.37 5.27l.52-.49c-.17-1.7-.3-3.41-.36-5.12-.17-4.81.55-9.48 1.67-14.09z"/><path d="m433.979 597.669c-1.7-3.91-3.9-7.48-6.22-10.97-3.23-4.9-4.8-10.36-5.44-16.22-.51-4.76-.97-9.46-1.26-14.21-.36-6.14.06-12.25 1.51-18.23.71-2.98 1.3-6.01 1.14-9.11-.12-2.18-.42-4.31-1.05-6.31l-.47.52c1.39 4.7 1.13 9.37 0 14.07-1.45 5.99-2.06 12.06-1.71 18.2.4 6.87.85 13.76 2.13 20.52.7 3.67 2.14 7.05 4.1 10.17 2.41 3.86 4.99 7.61 6.77 11.87 1.53 3.7 2.92 7.45 4.34 11.18 1.04 2.75 2.46 5.09 4.21 7.07l.48-.35c-2.03-2.3-3.58-5.07-4.71-8.25-1.2-3.35-2.39-6.7-3.82-9.95z"/><path d="m555.139 617.44c-.01-.45-.03-.9-.04-1.35 0-.23 0-.47 0-.7 0-.52.02-1.04.03-1.57.14-2.78.43-5.55.57-8.36.12-3.11.12-6.18-2.37-8.57-1.17-1.12-2.51-1.56-3.88-1.56-.24 0-.48.01-.73.04-5.88.65-11 3.27-15.57 7.22-5.59 4.81-8.03 11.53-9.85 18.62-.92 3.6-1.87 7.2-2.74 10.81l.62.02c1.19-5.08 2.52-10.12 3.98-15.13 1.26-4.34 3.22-8.29 6.11-11.64 1.72-1.96 3.66-3.62 5.84-4.97 3.47-2.1 7.09-3.76 11.11-4.31.3-.04.59-.06.88-.06 2.98 0 5.38 2.12 5.89 5.43.44 2.7.1 5.39-.12 8.07-.13 1.61-.21 3.2-.24 4.8 0 .05-.01.09-.01.14v.19c-.01.56-.01 1.12 0 1.68.01.33.01.67.02 1 .14 5.28.93 10.46 2.68 15.52.02.06.05.12.08.19l.64.02c-1.12-2.85-1.83-5.86-2.24-8.97-.32-2.18-.56-4.37-.66-6.56z"/><path d="m407.959 574.659c.58.18 1.13.27 1.64.27 1.76 0 3.04-1.07 3.8-3.15 1.16-3.13 1.48-6.4 1.41-9.73-.1-4.02-.4-8.03-.65-12.06-.21-3.47-.02-6.93.3-10.38.25-2.86.72-5.69.52-8.55l-.46.51c.08 1.94-.12 3.88-.33 5.78-.09.74-.16 1.47-.23 2.22-.39 4.1-.48 7.41-.3 10.44l.16 2.33c.21 3.2.42 6.48.5 9.72.08 3.77-.35 6.8-1.37 9.55-.7 1.9-1.79 2.82-3.34 2.82-.46 0-.96-.08-1.49-.24-1.62-.5-3.25-1.34-5.13-2.67l-.68-.48c-3.03-2.15-6.11-4.36-9.2-6.58.06.25.12.5.2.75 3.12 2.24 6.25 4.48 9.38 6.71 1.65 1.16 3.37 2.16 5.27 2.74z"/><path d="m473.859 555.609c3.11-1.73 6.28-3.38 9.33-5.26 1.93-1.2 3.66-2.73 5.13-4.54 2.06-2.62 2.56-5.71 2.39-9.04-.19-4.07-1.33-7.85-2.8-11.53-1.78-4.48-4.77-7.58-9.27-8.87-5.44-1.6-10.86-3.22-15.84-6.15-3.73-2.18-7.2-4.75-10.43-7.68-2.11-1.92-4.01-4.02-5.77-6.24l-.38.41c6.27 8.02 14.14 13.75 23.36 17.35 2.88 1.13 5.85 1.99 8.8 2.83 4.4 1.28 7.28 4.29 9.03 8.65 1.51 3.82 2.62 7.75 2.76 11.92.16 4.24-1.41 7.65-4.52 10.3-2.67 2.28-5.71 3.82-8.69 5.45-3.33 1.84-6.68 3.62-9.72 5.99-1.24.97-2.4 2.03-3.52 3.14l.11.68c2.98-3.02 6.38-5.4 10.03-7.41z"/><path d="m440.86 539.309c.04-.45.06-.89.07-1.34.01-.17.01-.35.01-.52 0-.4 0-.8-.01-1.2-.05-2.29-.31-4.59-.81-6.91-1.47-6.72-3.22-13.32-5.65-19.7l-.39.43c1.68 4.35 2.86 8.9 4.11 13.42 1.03 3.67 1.78 7.41 2.17 11.24.06.56.08 1.12.1 1.69.01.32.01.64.01.95 0 .28-.01.55-.02.83-.01.35-.03.7-.06 1.05-.1 1.26-.29 2.52-.57 3.76-.49 2.14-1.03 4.28-1.51 6.43l.68-.64c.23-.95.47-1.9.73-2.84.61-2.22.98-4.43 1.14-6.65z"/><path d="m399.169 556.829c.67.4 1.27.57 1.82.57 1.79 0 2.81-1.94 2.82-3.87.02-1.26-.33-2.52-.88-3.71-.6-1.32-1.49-2.29-2.71-2.53l-.42.46c1.38.1 2.19 1.28 2.65 2.27.58 1.24.86 2.41.84 3.49-.01 1.65-.82 3.39-2.33 3.39-.48 0-1.01-.17-1.56-.5l-.48-.29c-.71-.42-1.39-.82-1.9-1.44-.64-.76-1.07-1.53-1.31-2.35-.12.16-.23.32-.35.48.29.8.72 1.53 1.29 2.2.7.82 1.63 1.28 2.52 1.83z"/><path d="m476.62 543.53c1.74-1.94 2.85-4.16 2.67-6.83.15-3.6-1.21-6.4-3.4-8.87-2.35-2.67-5.16-4.6-8.02-6.51-4.3-2.9-8.61-5.8-12.99-8.6-2.27-1.44-4.53-2.94-7.14-3.66-.56-.15-1.07-.23-1.53-.23-2.04 0-3.16 1.41-3.25 4.1-.08 2.76.39 5.46.97 8.14 1.07 4.86 2.74 9.48 3.88 14.29.35 1.47.59 2.94.76 4.4l.45-.43c-.17-1.37-.41-2.72-.73-4.07-.55-2.28-1.21-4.56-1.85-6.74-.73-2.46-1.47-5-2.04-7.56-.54-2.52-1.04-5.23-.95-8.01.07-2.4.99-3.61 2.75-3.61.41 0 .88.07 1.39.19 2.35.64 4.47 1.99 6.52 3.3l.48.32c4.42 2.82 8.77 5.76 12.98 8.59 2.88 1.91 5.65 3.84 7.92 6.41 2.36 2.69 3.42 5.4 3.28 8.53.16 2.34-.68 4.45-2.53 6.52-2.41 2.65-5.34 4.46-7.62 5.74l-1.68.95c-1.58.89-3.2 1.81-4.8 2.76l.09.53c2.2-1.31 4.44-2.56 6.66-3.82 2.8-1.57 5.49-3.36 7.73-5.83z"/></g><path d="m554.209 572.629-13.45-53.15c-.16-.62-.8-.98-1.42-.8-.56.16-.91.72-.81 1.3l11.77 65.6v39.83l11.11-.05-.09-31.33s-1.77-1.62-2.79-4.69c-.75-2.28-4.32-16.71-4.32-16.71z" fill="#000" opacity=".15"/><path d="m453.999 607.609-16.01 11.39-3.2-3.76 16.38-11.96z" fill="#000" opacity=".6"/><path d="m539.689 473.779s-7.93 4.65-29.58 4.47c0 0-13.28 0-23.44-6.12l-6.87 1.98c8.85 6.03 38.21 15.17 65.51.86z" fill="#000" opacity=".6"/><path d="m533.46 461.21-4.99-.28c-.56 0-.85.66-.47 1.04l5.93 5.18z" fill="#000" opacity=".15"/><path d="m561.42 625.359 43.94 331.27s-36.11 9.1-75.1 4.33l-11.62-258.17-19.71-8.87 19.71 8.87 5.12 258.37s-44.8 5.56-76.44-6.17c0 0 16.04-205.48 11.95-235.49-7.72-56.61 7.65-81.7 14.91-93.72z" fill="#3f4249"/><path d="m510.45 703.168-11.17-5.83c-.6-.31-.921-1-.761-1.66.21-.92 1.21-1.41 2.06-1.02l18.061 8.12 5.089 258.35s-1.91.36-13.86 1.06z" fill="#000" opacity=".2"/><path d="m474.18 625.779-5.16 9.09h93.53l-1.13-9.51z" fill="#21252b"/><path d="m503.329 513.178-.94-1.039c10.17-9.13 8.19-18.171 4.52-29.091-5.65-16.76 3.48-22.779 3.86-23.069l.75 1.22-.38-.56.38.56c-.38.19-8.57 5.74-3.3 21.37 3.02 8.95 6.78 20.059-4.89 30.609z" fill="#21252b"/><path d="m536.469 391.729c5.84 2.45 12.05 7.06 17.32 15.53l1.22-.75c-9.41-15.16-22.03-18.36-30.5-18.55-34.65-5.08-53.48 36.34-31.35 66.28 1.88 2.54 2.64 5.74 1.88 8.76-1.69 7.91-10.45 6.12-23.07 16.1-18.92 14.97-18.92 43.4-18.92 43.4l2.54.94 2.35-3.39-.75 3.86 18.17 6.4c2.92-8.19 8.57-14.03 8.57-14.03-2.35 4.52-4.52 11.77-5.46 15.16l15.73 5.56c-4.71-23.73 17.32-26.17 11.77-49.24-3.67-15.25 6.03-26.55 6.03-26.55l4.05-1.41c35.97-12.43 29.94-48.58 29.94-48.58 2.82.19 5.37 8.66 5.37 8.66l4.33-2.17c.08 0-3.87-17.79-19.22-25.98z" fill="#21252b"/><path d="m494.289 465.26c9.79-.94 12.43 6.12 12.43 6.12 5.37-.47 3.67-5.65 3.67-5.65-4.52-8.19-15.16-6.97-15.16-6.97s-2.54 0-3.2 3.48c-.66 3.49 2.26 3.02 2.26 3.02z" fill="#4d61fc"/><path d="m552.099 440.5c-2.26 0-3.48-4.8-3.48-9.42s1.22-9.42 3.48-9.42 3.48 4.8 3.48 9.42-1.31 9.42-3.48 9.42zm0-17.7c-1.04 0-2.45 3.2-2.45 8.38s1.41 8.38 2.45 8.38 2.45-3.2 2.45-8.38-1.51-8.38-2.45-8.38z" fill="#21252b"/><path d="m552.95 447.269c-.09 0-2.35-.28-3.86-1.98l.75-.85c1.41 1.6 3.39 1.79 3.39 1.79z" fill="#000" opacity=".15"/><path d="m552.13 433.95c.768 0 1.39-.622 1.39-1.39s-.622-1.39-1.39-1.39c-.767 0-1.39.622-1.39 1.39s.623 1.39 1.39 1.39z" fill="#21252b"/><path d="m552.71 432.56c.16 0 .29-.129.29-.29 0-.16-.13-.29-.29-.29s-.29.13-.29.29c0 .161.13.29.29.29z" fill="#fff"/><path d="m645.579 541.989c-.84 0-1.69-.07-2.54-.21-7.74-1.24-13.31-7.84-13.23-15.69l2.25-235.42c.02-1.66 1.4-2.96 3.03-2.97 1.66.02 2.99 1.37 2.97 3.03l-2.25 235.42c-.05 4.86 3.4 8.94 8.19 9.71 4.94.8 9.64-2.24 10.95-7.06l1.77-6.52c.43-1.6 2.08-2.55 3.68-2.11 1.6.43 2.54 2.08 2.11 3.68l-1.77 6.52c-1.9 6.96-8.17 11.62-15.16 11.62z" fill="#4d61fc"/><path d="m594.969 535.15 16.05 11.94-2.81 4.08-16.57-12.34z" fill="#000" opacity=".6"/><path d="m638.379 513.96-6.39.18-2.3-.09-18.74 33.15-15.99-12.05 24.83-27.48s-.29-4.51 5.42-11.05l4.92-8.11s3.28.31 3.14 3.73-3.41 6.88-3.13 8.04l-.88-3.07 9.28-1.79-4.72 5.26 5.32-.18-3.29 5.24z" fill="#fb9c9c"/><path d="m642.408 507.379c-.15 1.29-1.359 2.19-2.639 1.98l-4.101-.92c-1.14-.2-2.439 1.02-2.709 2.14-.3 1.19.65 1.9 1.85 2.17l3.58 1.22c1.18.27 2.38-.39 2.79-1.54.49-1.4-.4-2.9-1.87-3.14l-4.49-1.01c-1.11-.18-2.09-.72-1.94-1.84.16-1.11 1.37-2.4 2.48-2.29l5 .68c1.27.12 2.199 1.27 2.049 2.55z" fill="#fb9c9c"/><path d="m639.879 499.58-6.48 1.36c-.91.15-1.78 1.44-1.77 2.36 0 1.05 1.09 1.39 2.14 1.36l6.58-.22c1.48-.04 2.58-1.37 2.35-2.83-.21-1.34-1.47-2.26-2.82-2.03z" fill="#fb9c9c"/><path d="m639.799 499.539-6.85 2.03c-.9.16-1.77-.37-2.03-1.25-.28-.95.27-1.95 1.23-2.22l6.67-2.8c1.16-.33 2.38.36 2.69 1.53.33 1.24-.46 2.48-1.71 2.71z" fill="#fb9c9c"/><path d="m630.85 498.36c.66-.99.93-1.63.93-1.63l6.77-1.31z" fill="#000" opacity=".15"/><path d="m625.849 168.01-2.01-14.74c-.15-1.07-.97-1.92-2.04-2.1-1.3-.22-2.54.62-2.82 1.9l-3.12 14.19z" fill="#4d61fc"/><path d="m625.849 168.01-2.01-14.74c-.15-1.07-.97-1.92-2.04-2.1-1.3-.22-2.54.62-2.82 1.9l-3.12 14.19z" fill="#000" opacity=".3"/><path d="m621.189 166.649c206.41-2.18 270.75 172.48 270.75 172.48-74.04-13.33-116.69 33.46-116.69 33.46s3.38-66.45-46.44-130.42-107.62-75.52-107.62-75.52z" fill="#4d61fc"/><path d="m621.189 166.649c206.41-2.18 270.75 172.48 270.75 172.48-74.04-13.33-116.69 33.46-116.69 33.46s3.38-66.45-46.44-130.42-107.62-75.52-107.62-75.52z" fill="#000" opacity=".3"/><path d="m621.19 166.648s-54.78 27-87.18 84.55c-32.17 57.15-29.08 112.75-29.08 112.75s-46.43-58.36-132.41-39.33c.29.43 64.36-145.98 248.67-157.97z" fill="#4d61fc"/><path d="m621.19 166.648s-55.72 27.01-87.18 84.55-29.08 112.75-29.08 112.75-46.43-58.36-132.41-39.33c.01.01 66.86-148.92 248.67-157.97z" fill="#fff" opacity=".7"/><path d="m504.94 363.949c-.28-20.69 2.34-41.75 8.2-62.7 16.81-60.06 57.23-107.08 108.06-134.61 0 0 20.35 35.72 27.49 100.52 7.47 67.78-1.76 111.53-1.76 111.53s-29.16-26.02-73.83-26.85c-44.68-.82-68.16 12.11-68.16 12.11z" fill="#4d61fc"/><path d="m504.94 363.949c-.28-20.69 2.34-41.75 8.2-62.7 16.81-60.06 57.23-107.08 108.06-134.61 0 0 20.35 35.72 27.49 100.52 7.47 67.78-1.76 111.53-1.76 111.53s-29.16-26.02-73.83-26.85c-44.68-.82-68.16 12.11-68.16 12.11z" fill="#fff" opacity=".5"/><path d="m621.189 166.648c4.64 1.05 10.33 2.88 14.83 4.59 83.64 31.87 137.27 114.58 139.23 201.34 0 0-27.16-16.83-70.22-12.69-36.05 3.47-58.12 18.81-58.12 18.81s10.96-54.45-.59-129.06c-8.45-54.63-25.13-82.99-25.13-82.99z" fill="#4d61fc"/><path d="m577.59 554.37.97 5.81 43.59-50.11s-.57-2.29.85-6.74c.49-1.53 3.52-5.69 3.52-5.69l4.91-8.74-1.29-.4-4.92 8.11s-2.7 3.16-3.86 5.6c-1.76 3.72-1.56 5.45-1.56 5.45z" fill="#000" opacity=".15"/><path d="m562.549 634.869h-11.5l42.86 324.05 11.45-2.3z" fill="#000" opacity=".2"/></svg>