<svg enable-background="new 0 0 1600 1200" fill="none" height="1200" viewBox="0 0 1600 1200" width="1600" xmlns="http://www.w3.org/2000/svg"><path d="m250.32 1046.88-49.52-559.07c-1.263-14.266 3.089-28.463 12.13-39.57l228.63-280.83c5.757-7.075 13.183-12.607 21.609-16.098s17.588-4.832 26.661-3.902l699.24 71.88c9.69.998 18.94 4.553 26.81 10.3 7.86 5.748 14.06 13.481 17.96 22.41l161 368.39c4.23 9.682 5.59 20.378 3.9 30.81l-64.1 395.8z" fill="#f2f2f2"/><path d="m1347.62 1047.76h-1108.619c-.212 0-.415-.08-.566-.23-.15-.15-.234-.36-.234-.57s.084-.42.234-.57c.151-.15.354-.23.566-.23h1108.699c.11 0 .21.02.31.06s.19.1.26.17c.07.08.13.16.17.26s.06.2.06.31-.03.22-.07.32c-.05.1-.11.19-.2.27-.08.07-.18.13-.28.17-.11.03-.22.05-.33.04z" fill="#afb3b8"/><path d="m1113.47 399.86h113.53c3.66 0 7.18 1.455 9.77 4.045s4.04 6.103 4.04 9.765v363.33c0 2.515-1 4.926-2.78 6.704-1.77 1.778-4.19 2.776-6.7 2.776h-117.9c-2.51-.013-4.9-1.017-6.67-2.794-1.77-1.776-2.76-4.18-2.76-6.686v-367.69c.01-2.507 1.01-4.909 2.78-6.68 1.78-1.771 4.18-2.767 6.69-2.77z" fill="#263238" opacity=".3"/><path d="m1213.11 399.86h-117.7c-5.29 0-9.58 4.289-9.58 9.58v367.45c0 5.291 4.29 9.58 9.58 9.58h117.7c5.29 0 9.58-4.289 9.58-9.58v-367.45c0-5.291-4.29-9.58-9.58-9.58z" fill="#dadddf"/><path d="m1158.11 431.21h-56.84v14.21h56.84z" fill="#f4f4f4"/><path d="m1198.15 458.35h-56.84v14.21h56.84z" fill="#f4f4f4"/><path d="m1138.74 484.18h-36.18v14.21h36.18z" fill="#f4f4f4"/><path d="m1195.58 484.18h-36.18v14.21h36.18z" fill="#f4f4f4"/><path d="m1116.77 510.02h-18.09v14.21h18.09z" fill="#f4f4f4"/><path d="m1159.4 510.02h-29.71v14.21h29.71z" fill="#f4f4f4"/><path d="m1174.69 540.58h-37.76v14.21h37.76z" fill="#f4f4f4"/><path d="m1199.96 540.58h-19.1v14.21h19.1z" fill="#f4f4f4"/><path d="m1165.58 573.05h-51.17v14.21h51.17z" fill="#f4f4f4"/><path d="m1210.97 573.05h-29.71v14.21h29.71z" fill="#f4f4f4"/><path d="m1155.07 608.39h-17.74v14.21h17.74z" fill="#f4f4f4"/><path d="m1217.15 608.39h-44.89v14.21h44.89z" fill="#f4f4f4"/><path d="m1205.9 431.21h-31v14.21h31z" fill="#f4f4f4"/><path d="m1101 399.86h106.44c4.03 0 7.9 1.601 10.75 4.452 2.85 2.85 4.46 6.716 4.46 10.748v371.41h-136.82v-371.4c0-4.032 1.6-7.899 4.45-10.751s6.72-4.456 10.75-4.459z" fill="#dadddf"/><path d="m1158.11 431.21h-56.84v14.21h56.84z" fill="#f4f4f4"/><path d="m1198.15 458.35h-56.84v14.21h56.84z" fill="#f4f4f4"/><path d="m1138.74 484.18h-36.18v14.21h36.18z" fill="#f4f4f4"/><path d="m1195.58 484.18h-36.18v14.21h36.18z" fill="#f4f4f4"/><path d="m1116.77 510.02h-18.09v14.21h18.09z" fill="#f4f4f4"/><path d="m1159.4 510.02h-29.71v14.21h29.71z" fill="#f4f4f4"/><path d="m1174.69 540.58h-37.76v14.21h37.76z" fill="#f4f4f4"/><path d="m1199.96 540.58h-19.1v14.21h19.1z" fill="#f4f4f4"/><path d="m1165.58 573.05h-51.17v14.21h51.17z" fill="#f4f4f4"/><path d="m1210.97 573.05h-29.71v14.21h29.71z" fill="#f4f4f4"/><path d="m1155.07 608.39h-17.74v14.21h17.74z" fill="#f4f4f4"/><path d="m1217.15 608.39h-44.89v14.21h44.89z" fill="#f4f4f4"/><path d="m1205.9 431.21h-31v14.21h31z" fill="#f4f4f4"/><path d="m851.869 327.18h191.001c3.77.002 7.38 1.501 10.04 4.165 2.66 2.665 4.16 6.278 4.16 10.045v289.72h-205.201z" fill="#263238" opacity=".3"/><path d="m837.87 327.18h183.51c2.87 0 5.62 1.14 7.65 3.168 2.04 2.029 3.18 4.781 3.18 7.652v293.1h-205.21v-293.1c0-2.872 1.141-5.627 3.172-7.658s4.786-3.172 7.658-3.172z" fill="#dadddf"/><g fill="#f4f4f4"><path d="m933.971 360.16h-56.84v14.21h56.84z"/><path d="m974.02 387.29h-56.84v14.21h56.84z"/><path d="m914.6 413.14h-36.18v14.21h36.18z"/><path d="m971.45 413.14h-36.18v14.21h36.18z"/><path d="m935.261 438.97h-29.71v14.21h29.71z"/><path d="m981.77 360.16h-31v14.21h31z"/><path d="m896.51 387.29h-56.84v14.21h56.84z"/><path d="m1023.12 413.14h-36.181v14.21h36.181z"/><path d="m892.641 438.97h-18.09v14.21h18.09z"/><path d="m997.909 438.97h-29.71v14.21h29.71z"/><path d="m1002.36 472.16h-48.45v14.21h48.45z"/><path d="m900.57 506.93h-23.89v14.21h23.89z"/><path d="m947.07 506.93h-23.89v14.21h23.89z"/><path d="m994.641 532.77h-36.18v14.209h36.18z"/><path d="m918.659 475.64h-50.389v14.21h50.389z"/><path d="m892.641 438.97h-18.09v14.21h18.09z"/></g><path d="m502.739 801.38c-6.36 0-12.68-2.8-17.77-6.62-46.31-34.64-79.81-60-101.08-98.46-20.88-37.74-29.6-86.33-31-172.86l-.28-17.66 17.45-2.12c36.88-4.43 101.07-37.87 122.7-50.39l10.41-6 10 6.59c58.26 38.2 122.18 49.82 122.82 49.93l16.75 3-.63 17c-3.01 78.74-15.11 135.03-38.21 177.05-20.87 38.08-47.85 58.35-71.63 76.22-7.21 5.42-14 11.24-20.62 16.76-5.29 4.42-12 7.55-18.89 7.55z" fill="#4d61fc"/><path d="m502.739 801.38c-6.36 0-12.68-2.8-17.77-6.62-46.31-34.64-79.81-60-101.08-98.46-20.88-37.74-29.6-86.33-31-172.86l-.28-17.66 17.45-2.12c36.88-4.43 101.07-37.87 122.7-50.39l10.41-6 10 6.59c58.26 38.2 122.18 49.82 122.82 49.93l16.75 3-.63 17c-3.01 78.74-15.11 135.03-38.21 177.05-20.87 38.08-47.85 58.35-71.63 76.22-7.21 5.42-14 11.24-20.62 16.76-5.29 4.42-12 7.55-18.89 7.55z" fill="#000" opacity=".2"/><path d="m502.618 469.63s-81.169 47-130.139 52.85c2.68 164.42 32.029 186.52 124.319 255.52 1.8 1.355 4.005 2.063 6.258 2.009 2.252-.055 4.42-.868 6.152-2.309 52.43-43.85 116.081-62.88 123.561-255.19 0-.03-67.52-11.78-130.151-52.88zm0 0s-81.169 47-130.139 52.85c2.68 164.42 32.029 186.52 124.319 255.52 1.8 1.355 4.005 2.063 6.258 2.009 2.252-.055 4.42-.868 6.152-2.309 52.43-43.85 116.081-62.88 123.561-255.19 0-.03-67.52-11.78-130.151-52.88zm0 0s-81.169 47-130.139 52.85c2.68 164.42 32.029 186.52 124.319 255.52 1.8 1.355 4.005 2.063 6.258 2.009 2.252-.055 4.42-.868 6.152-2.309 52.43-43.85 116.081-62.88 123.561-255.19 0-.03-67.52-11.78-130.151-52.88z" fill="#4d61fc"/><path d="m570.589 586.53-65.9 76.64-17.44 20.25c-.531.618-1.22 1.08-1.993 1.337-.774.257-1.602.3-2.397.123l-17.39-21.66-31.11-38.75c-.543-.674-.948-1.447-1.192-2.278-.244-.83-.321-1.7-.229-2.56.093-.86.355-1.693.77-2.452s.976-1.428 1.651-1.97l13.64-10.9c1.361-1.095 3.1-1.604 4.837-1.416 1.736.187 3.327 1.056 4.423 2.416l27 33.58 62.25-72.33c.97-1.119 2.343-1.808 3.82-1.917s2.936.372 4.06 1.337l14.61 12.69c1.119.965 1.809 2.334 1.92 3.808.11 1.473-.368 2.931-1.33 4.052z" fill="#b2b6bc"/><path d="m571.07 588.459-62.63 72.78-16.54 19.23c-.501.589-1.154 1.029-1.887 1.273-.734.243-1.52.28-2.273.107l-16.52-20.61-29.53-36.75c-1.033-1.3-1.507-2.957-1.32-4.607.188-1.649 1.022-3.157 2.32-4.193l12.89-10.35c1.293-1.041 2.946-1.525 4.596-1.347 1.651.178 3.163 1.004 4.204 2.297l25.58 31.88 59.04-68.68c.92-1.063 2.224-1.718 3.626-1.821s2.788.354 3.854 1.271l14 12.08c1.064.909 1.724 2.203 1.834 3.598.111 1.395-.337 2.777-1.244 3.842z" fill="#fff"/><path d="m1272.78 822.121h-956.241v128.41h956.241z" fill="#4d61fc"/><path d="m1272.78 822.121h-956.241v128.41h956.241z" fill="#000" opacity=".65"/><path d="m1260.89 968.83c0-35.52 2.69-126-112-131.13-121.57-5.51-106.55 131.13-106.55 131.13h-501.4c-.61 5 9.69-132.5-109.28-132.5-42.35 0-95.63 10.93-108.6 131.79 0 0-27.91 1.3-49.73-4.61-6.55-1.813-12.201-5.978-15.873-11.698-3.671-5.719-5.105-12.591-4.027-19.302l1.37-8.8 5.78-37.11 6.34-40.78 5.52-35.51c.649-4.2 2.333-8.173 4.899-11.561s5.934-6.085 9.801-7.849l77.86-35.52c13.396-6.121 27.7-10.018 42.35-11.54l148.65-15.46 4.61-2.87s65-27.9 149.9-75.73c17.199-9.748 35.626-17.147 54.79-22 8.857-2.335 17.913-3.835 27.05-4.48 75.13-4.1 336-5.46 352.4 0s132.51 31.42 94.26 47.82c0 0 61.23 45.21 83.55 78.55 4.57 6.8 7.51 13.11 8 18.44 1.62 18.404 1.64 36.913.07 55.32.01.229-.02.458-.07.68 0 0 16.4-2.73 15 31.42 8.22 49.1-20.47 110.57-84.67 113.3z" fill="#4d61fc"/><path d="m1260.89 968.83c0-35.52 2.69-126-112-131.13-121.57-5.51-106.55 131.13-106.55 131.13h-501.4c-.61 5 9.69-132.5-109.28-132.5-42.35 0-95.63 10.93-108.6 131.79 0 0-27.91 1.3-49.73-4.61-6.55-1.813-12.201-5.978-15.873-11.698-3.671-5.719-5.105-12.591-4.027-19.302l1.37-8.8 5.78-37.11 6.34-40.78 5.52-35.51c.649-4.2 2.333-8.173 4.899-11.561s5.934-6.085 9.801-7.849l77.86-35.52c13.396-6.121 27.7-10.018 42.35-11.54l148.65-15.46 4.61-2.87s65-27.9 149.9-75.73c17.199-9.748 35.626-17.147 54.79-22 8.857-2.335 17.913-3.835 27.05-4.48 75.13-4.1 336-5.46 352.4 0s132.51 31.42 94.26 47.82c0 0 61.23 45.21 83.55 78.55 4.57 6.8 7.51 13.11 8 18.44 1.62 18.404 1.64 36.913.07 55.32.01.229-.02.458-.07.68 0 0 16.4-2.73 15 31.42 8.22 49.1-20.47 110.57-84.67 113.3z" fill="#fff" opacity=".7"/><path d="m1288.69 963.2-26.26 5.54c-.51 0-1 .07-1.53.09 0-35.52 2.69-126-112-131.14-121.58-5.5-106.56 131.14-106.56 131.14h-319.67l-181.7-1c.22-13.11 1.1-131.47-109.26-131.47-42.17 0-95.15 10.84-108.43 130.23l-30.56-.17s-23.91-165.75 140.16-165.75c134.35 7.77 140.81 105.94 140.81 105.94h445.68s0-93 136.94-95.6c149.85 5.17 132.38 152.19 132.38 152.19z" fill="#000" opacity=".3"/><path d="m433.34 1044.1c52.058 0 94.26-42.2 94.26-94.26 0-52.058-42.202-94.26-94.26-94.26s-94.26 42.202-94.26 94.26c0 52.06 42.202 94.26 94.26 94.26z" fill="#3f4249"/><path d="m349.76 949.241c.382-5.193 1.219-10.343 2.5-15.39 1.252-5.064 2.88-10.028 4.87-14.85 3.978-9.735 9.744-18.638 17-26.25 3.694-3.759 7.781-7.112 12.19-10 4.472-2.811 9.208-5.179 14.14-7.07 20.077-6.86 41.816-7.15 62.07-.83l1.91.61 1.83.75c1.22.5 2.46 1 3.65 1.51l3.56 1.76c.595.299 1.173.633 1.73 1l1.71 1c4.553 2.653 8.767 5.85 12.55 9.52 7.446 7.427 13.335 16.267 17.32 26 1.986 4.865 3.581 9.881 4.77 15 1.214 5.076 1.947 10.256 2.19 15.47-1.118-10.317-3.862-20.392-8.13-29.85-4.112-9.452-10.069-17.989-17.52-25.11l-2.87-2.56-3.05-2.32c-1-.81-2.1-1.46-3.15-2.2l-1.57-1.1-1.66-.95-1.66-1c-.55-.32-1.12-.62-1.69-.9l-3.45-1.66c-1.16-.53-2.37-1-3.55-1.43l-1.79-.7c-.6-.21-1.22-.38-1.83-.57l-3.67-1.12-3.74-.88-1.91-.43c-.63-.13-1.26-.21-1.91-.32l-3.82-.62c-1.26-.2-2.55-.26-3.82-.4s-2.55-.27-3.82-.33l-3.82-.11c-1.28 0-2.55-.12-3.82 0-10.263.015-20.452 1.735-30.15 5.09-9.683 3.458-18.488 9.002-25.79 16.24-7.291 7.297-13.155 15.89-17.29 25.34-4.286 9.412-7.154 19.407-8.51 29.66z" fill="#dadddf"/><path d="m433.34 1015.41c36.213 0 65.57-29.357 65.57-65.57 0-36.214-29.357-65.57-65.57-65.57-36.214 0-65.57 29.356-65.57 65.57 0 36.213 29.356 65.57 65.57 65.57z" fill="#fff" opacity=".5"/><path d="m433.341 1011.38c33.987 0 61.54-27.552 61.54-61.539 0-33.988-27.553-61.54-61.54-61.54-33.988 0-61.54 27.552-61.54 61.54 0 33.987 27.552 61.539 61.54 61.539z" fill="#fff"/><path d="m484.15 949.999c-.011 13.126-5.119 25.734-14.248 35.165s-21.564 14.946-34.682 15.386c-.57 0-1.13.06-1.69.06-6.648.01-13.233-1.299-19.377-3.84s-11.726-6.268-16.428-10.969c-4.701-4.7-8.43-10.282-10.972-16.426-2.542-6.143-3.848-12.727-3.843-19.376v-1c.176-8.515 2.497-16.848 6.748-24.228 4.252-7.38 10.296-13.568 17.574-17.992 7.279-4.424 15.555-6.94 24.064-7.316 8.508-.375 16.974 1.401 24.614 5.166 4.74 2.322 9.079 5.388 12.85 9.08 4.871 4.706 8.744 10.344 11.389 16.579 2.644 6.235 4.005 12.939 4.001 19.711z" fill="#000"/><path d="m471.16 916.229c-.79-.87-1.6-1.73-2.44-2.55-3.277-3.18-6.979-5.893-11-8.06l-16.33 19.8v-25.42c-2.623-.41-5.274-.62-7.93-.63-3.076.008-6.145.293-9.17.85v29.24l-21.19-19.89c-4.614 3.423-8.591 7.631-11.75 12.43l19.92 18.69h-27.52c-.512 2.739-.796 5.515-.85 8.3v1c.008 2.595.212 5.186.61 7.75h31.26l-20.21 24.52c3.657 4.421 8.036 8.191 12.95 11.15l16.84-20.41v26.74c3.024.571 6.094.851 9.17.861h1.69c2.091-.08 4.174-.28 6.24-.601v-31l22.64 21.31c4.564-3.478 8.512-7.696 11.68-12.48l-21.34-20.06h29.05c.874-5.672.776-11.451-.29-17.09h-32.19z" fill="#fff"/><path d="m432.87 955.699c3.568 0 6.46-2.892 6.46-6.46s-2.892-6.46-6.46-6.46-6.46 2.892-6.46 6.46 2.892 6.46 6.46 6.46z" fill="#000"/><path d="m1216.96 1016.49c36.81-36.813 36.81-96.495 0-133.306s-96.49-36.811-133.3 0-36.81 96.493 0 133.306c36.81 36.81 96.49 36.81 133.3 0z" fill="#3f4249"/><path d="m1066.7 949.241c.38-5.193 1.21-10.342 2.49-15.39 1.25-5.069 2.88-10.039 4.86-14.87 3.97-9.738 9.74-18.643 17-26.25 3.69-3.759 7.77-7.111 12.18-10 4.47-2.811 9.21-5.179 14.15-7.07 20.08-6.859 41.82-7.15 62.07-.83.63.2 1.26.39 1.91.61l1.84.75c1.22.5 2.46 1 3.65 1.51l3.56 1.76c.59.3 1.17.634 1.73 1l1.7 1c4.55 2.694 8.75 5.931 12.51 9.64 7.45 7.425 13.34 16.265 17.33 26 1.98 4.841 3.57 9.83 4.77 14.92 1.22 5.064 1.96 10.229 2.23 15.43-1.12-10.313-3.86-20.385-8.13-29.84-4.11-9.459-10.07-17.999-17.53-25.12l-2.87-2.56-3-2.35c-1-.81-2.1-1.46-3.14-2.2l-1.58-1.07-1.67-1-1.66-1c-.54-.32-1.11-.62-1.69-.89l-3.45-1.66c-1.17-.53-2.38-.95-3.57-1.43l-1.77-.7c-.61-.21-1.22-.38-1.84-.57l-3.66-1.13-3.74-.88-1.86-.44c-.63-.13-1.27-.21-1.91-.32l-3.82-.62c-1.26-.2-2.55-.26-3.82-.4s-2.56-.27-3.82-.32l-3.82-.12c-1.28 0-2.57-.11-3.82 0-10.27.009-20.46 1.722-30.17 5.07-9.68 3.458-18.48 9.003-25.78 16.24-7.3 7.292-13.16 15.887-17.29 25.34-4.32 9.44-7.21 19.47-8.57 29.76z" fill="#dadddf"/><path d="m1150.31 1015.41c36.21 0 65.57-29.355 65.57-65.569 0-36.213-29.36-65.57-65.57-65.57s-65.57 29.357-65.57 65.57c0 36.214 29.36 65.569 65.57 65.569z" fill="#fff" opacity=".5"/><path d="m1211.09 959.751c5.45-33.548-17.33-65.159-50.88-70.605s-65.16 17.336-70.61 50.884c-5.44 33.549 17.34 65.16 50.89 70.61 33.55 5.44 65.16-17.34 70.6-50.889z" fill="#fff"/><path d="m1201.07 950c.01 13.13-5.09 25.748-14.22 35.183s-21.58 14.947-34.7 15.367c-.56 0-1.12.06-1.69.06-10.88.01-21.47-3.484-30.2-9.97-8.74-6.485-15.15-15.613-18.28-26.03-1.43-4.721-2.15-9.627-2.14-14.56-.02-.333-.02-.667 0-1 .17-8.516 2.49-16.851 6.74-24.232 4.25-7.382 10.3-13.571 17.58-17.996 7.28-4.424 15.55-6.94 24.06-7.314 8.51-.375 16.98 1.404 24.62 5.172 4.74 2.322 9.08 5.388 12.85 9.08 4.87 4.697 8.74 10.327 11.38 16.554 2.64 6.226 4 12.922 4 19.686z" fill="#000"/><path d="m1188.13 916.23c-.79-.87-1.59-1.73-2.44-2.55-3.28-3.179-6.98-5.891-11-8.06l-16.34 19.83v-25.4c-2.63-.41-5.28-.62-7.94-.63-3.07.003-6.14.287-9.16.85v29.24l-21.23-19.91c-4.59 3.428-8.56 7.623-11.72 12.4l19.94 18.68h-27.53c-.51 2.742-.79 5.522-.84 8.31-.02.333-.02.667 0 1 0 2.598.2 5.193.6 7.76h31.28l-20.22 24.51c3.67 4.43 8.06 8.204 13 11.16l16.84-20.42v26.74c3.02.56 6.09.85 9.16.86.56 0 1.12 0 1.69-.06 2.09-.07 4.17-.26 6.24-.59v-30.95l22.71 21.31c4.57-3.468 8.52-7.688 11.67-12.48l-21.32-20.06h29c.39-2.565.58-5.156.58-7.75 0-3.134-.29-6.261-.87-9.34h-32.29z" fill="#fff"/><path d="m1149.85 955.701c3.57 0 6.46-2.892 6.46-6.46s-2.89-6.46-6.46-6.46-6.46 2.892-6.46 6.46 2.89 6.46 6.46 6.46z" fill="#000"/><path d="m604.77 741.521s137.97-106.52 214.48-107.92 241.79 0 241.79 0 38.2 46.45 46.44 61.47c-16.39 15-64.2 42.35-64.2 42.35z" fill="#21252b"/><path d="m648.49 729.231h210.37l21.86-84.69s-72.4-6.84-120.21 15-112.02 69.69-112.02 69.69z" fill="#4d61fc"/><path d="m905.31 643.171-9.56 86.06 139.33-4.1 60.11-34.15-38.26-47.81z" fill="#4d61fc"/><path d="m648.49 729.231h210.37l21.86-84.69s-72.4-6.84-120.21 15-112.02 69.69-112.02 69.69z" fill="#ddd"/><path d="m905.31 643.171-9.56 86.06 139.33-4.1 60.11-34.15-38.26-47.81z" fill="#ddd"/><path d="m725.2 656.51c-15.45 8.33-132.14 78.31-132.14 78.31l-16.06-11.82c16.07-10.17 89.71-45 141.34-76.06 5.07 2.84 11.49 7.06 6.86 9.57z" fill="#4d61fc"/><path d="m1315.54 738.461c-11.88-.06-29-1.26-36.62-7.18-12.29-9.55-47.81-39.61-47.81-39.61s-.86-15.39 8.93-21.14c1.83 1.35 49.76 36.98 75.5 67.93z" fill="#4d61fc"/><path d="m725.2 656.51c-15.45 8.33-132.14 78.31-132.14 78.31l-16.06-11.82c16.07-10.17 89.71-45 141.34-76.06 5.07 2.84 11.49 7.06 6.86 9.57z" fill="#ddd"/><path d="m1315.54 738.461c-11.88-.06-29-1.26-36.62-7.18-12.29-9.55-47.81-39.61-47.81-39.61s-.86-15.39 8.93-21.14c1.83 1.35 49.76 36.98 75.5 67.93z" fill="#ddd"/><path d="m722.561 709c3.38-1.64 6.79-3.2 10.19-4.78l10.2-4.769c6.84-3.11 13.73-6.12 20.59-9.18s13.78-6.001 20.7-8.911l10.39-4.36c3.49-1.42 7-2.869 10.45-4.229-3.38 1.64-6.79 3.199-10.19 4.769l-10.21 4.71c-6.84 3.11-13.72 6.12-20.58 9.18s-13.78 6.001-20.71 8.911l-10.39 4.349c-3.48 1.43-6.95 2.9-10.44 4.31z" fill="#f4f4f4"/><path d="m763.439 700.211c2.47-1.24 5-2.4 7.45-3.61l7.5-3.47c5-2.32 10-4.55 15.07-6.77s10.1-4.4 15.2-6.5l7.64-3.15c2.56-1 5.11-2.05 7.7-3-2.48 1.24-5 2.41-7.45 3.61l-7.5 3.48c-5 2.32-10 4.54-15.07 6.77s-10.1 4.38-15.2 6.49l-7.64 3.16c-2.56.97-5.14 2.02-7.7 2.99z" fill="#f4f4f4"/><path d="m929.25 706.38c3.38-1.64 6.8-3.21 10.19-4.77l10.26-4.69c6.83-3.11 13.71-6.11 20.58-9.18s13.77-6 20.69-8.91l10.4-4.35c3.48-1.41 6.94-2.87 10.45-4.24-3.39 1.65-6.8 3.21-10.2 4.78l-10.25 4.69c-6.84 3.1-13.72 6.11-20.58 9.18s-13.78 6-20.7 8.9l-10.4 4.35c-3.48 1.42-6.95 2.86-10.44 4.24z" fill="#f4f4f4"/><path d="m970.141 697.621c2.47-1.24 5-2.39 7.44-3.6l7.5-3.48c5-2.32 10-4.55 15.069-6.77 5.07-2.22 10.1-4.4 15.2-6.5l7.64-3.15c2.57-1 5.11-2 7.7-3-2.46 1.25-5 2.41-7.45 3.61l-7.49 3.49c-5 2.31-10 4.54-15.08 6.76-5.079 2.22-10.099 4.39-15.199 6.5l-7.64 3.15c-2.56.99-5.11 2.02-7.69 2.99z" fill="#f4f4f4"/><path d="m838.38 771.57h-42.35c-6.037 0-10.93 4.894-10.93 10.93 0 6.037 4.893 10.93 10.93 10.93h42.35c6.036 0 10.93-4.893 10.93-10.93 0-6.036-4.894-10.93-10.93-10.93z" opacity=".3" stroke="#263238" stroke-miterlimit="10"/><path d="m1097.02 771.57h-37.82c-5.78 0-10.46 4.683-10.46 10.46v.94c0 5.777 4.68 10.46 10.46 10.46h37.82c5.78 0 10.46-4.683 10.46-10.46v-.94c0-5.777-4.68-10.46-10.46-10.46z" opacity=".3" stroke="#263238" stroke-miterlimit="10"/><path d="m293.31 950.53c-.467-4.869-.674-9.759-.62-14.65.05-4.89.23-9.79.71-14.66.846-9.759 2.573-19.422 5.16-28.87 2.58-9.475 6.174-18.645 10.72-27.35 4.574-8.676 10.225-16.74 16.82-24 1.68-1.78 3.28-3.66 5.13-5.28l2.69-2.55c.876-.859 1.801-1.667 2.77-2.42 1.91-1.53 3.82-3.08 5.78-4.58l6.1-4.12c1.01-.695 2.058-1.333 3.14-1.91l3.21-1.82c1.07-.6 2.12-1.23 3.21-1.79l3.33-1.58 3.34-1.57 1.67-.78c.55-.25 1.13-.45 1.71-.67l6.87-2.62c9.285-3.193 18.841-5.536 28.55-7 2.42-.37 4.84-.81 7.28-1.1s4.87-.54 7.31-.73c4.887-.38 9.79-.567 14.71-.56 9.813.042 19.605.889 29.28 2.53 2.42.42 4.83.86 7.23 1.39l7.15 1.72c1.19.3 2.39.54 3.57.89l3.52 1.09c2.33.74 4.7 1.39 7 2.23 9.251 3.308 18.135 7.564 26.51 12.7l6.13 4 5.83 4.5c3.777 3.137 7.35 6.511 10.7 10.1 6.672 7.191 12.386 15.214 17 23.87 4.618 8.705 8.237 17.903 10.79 27.42 2.508 9.473 4.132 19.157 4.85 28.93.772 9.761.598 19.573-.52 29.3 1.01-9.727 1.08-19.529.21-29.27-.829-9.734-2.553-19.372-5.15-28.79-2.601-9.405-6.251-18.489-10.88-27.08-6.941-12.891-16.35-24.29-27.69-33.55l-5.73-4.46-6.13-4.07c-8.314-5.08-17.135-9.279-26.32-12.53-2.29-.82-4.65-1.46-7-2.2l-3.49-1.08c-1.17-.34-2.37-.58-3.55-.87l-7.02-1.69c-2.38-.54-4.78-1-7.17-1.37-9.617-1.603-19.35-2.416-29.1-2.43-4.873 0-9.737.177-14.59.53-2.44.18-4.86.42-7.28.71s-4.78.71-7.23 1.07c-9.639 1.443-19.128 3.756-28.35 6.91l-6.88 2.58c-.57.22-1.15.41-1.7.66l-1.65.77-3.24 1.57-3.3 1.55c-1.08.56-2.13 1.19-3.19 1.77l-3.18 1.8c-1.072.583-2.113 1.221-3.12 1.91l-6.05 4.08-5.73 4.52c-.968.733-1.889 1.524-2.76 2.37l-2.69 2.48c-1.84 1.59-3.43 3.43-5.11 5.2-6.603 7.162-12.271 15.133-16.87 23.72-4.578 8.621-8.212 17.71-10.84 27.11-2.685 9.392-4.513 19.008-5.46 28.73-.52 4.86-.76 9.74-.86 14.63-.114 4.892.043 9.786.47 14.66z" fill="#f4f4f4"/><path d="m1014.46 950.531c-.86-9.279-.81-18.619.13-27.89.88-9.285 2.64-18.466 5.25-27.42 2.61-8.98 6.24-17.632 10.81-25.79 4.59-8.147 10.23-15.66 16.76-22.35 6.58-6.672 13.97-12.488 22-17.31 8.11-4.652 16.66-8.491 25.53-11.46l6.68-1.91 3.37-.95 3.42-.76 6.85-1.49c2.29-.44 4.61-.73 6.91-1.09l3.46-.52c1.16-.18 2.31-.36 3.48-.47 2.32-.27 4.64-.48 7-.65 4.67-.34 9.33-.51 14-.51 9.34.039 18.67.791 27.9 2.25l3.45.58 3.44.66 6.83 1.57 3.41.79c1.13.27 2.24.65 3.36 1l6.68 2c8.86 3.001 17.42 6.838 25.55 11.46 8.07 4.752 15.51 10.493 22.15 17.09 6.61 6.589 12.33 14.023 17 22.11 4.62 8.14 8.26 16.797 10.85 25.79 2.59 8.965 4.26 18.168 5 27.47.8 9.288.65 18.634-.47 27.89 1.01-9.257 1.06-18.593.15-27.86-.83-9.261-2.59-18.414-5.26-27.32-2.62-8.92-6.29-17.499-10.92-25.56-4.67-8.024-10.39-15.392-17-21.91-6.63-6.477-14.02-12.129-22-16.83-8.09-4.574-16.6-8.367-25.41-11.33l-6.69-2c-1.1-.31-2.21-.68-3.33-.95l-3.39-.77-6.78-1.55-3.42-.64-3.44-.57c-9.16-1.436-18.42-2.164-27.69-2.18-4.67 0-9.3.16-13.91.48-2.31.16-4.62.37-6.92.63-1.16.1-2.3.27-3.45.45l-3.44.51c-2.29.36-4.59.64-6.87 1.08l-6.8 1.46-3.4.74-3.34.95-6.68 1.91c-8.77 2.938-17.24 6.73-25.27 11.32-7.95 4.77-15.28 10.496-21.83 17.05-6.53 6.609-12.16 14.045-16.75 22.12-4.59 8.077-8.26 16.649-10.92 25.55-2.7 8.896-4.55 18.026-5.54 27.27-1.07 9.249-1.23 18.579-.5 27.86z" fill="#f4f4f4"/><path d="m282.389 900v13.66c.019 3.101-.924 6.131-2.698 8.674-1.774 2.542-4.293 4.473-7.21 5.526-2.916 1.052-6.087 1.175-9.076.351-2.99-.823-5.65-2.553-7.616-4.951l5.78-37.12c2.283-.961 4.769-1.342 7.235-1.108 2.466.233 4.835 1.074 6.897 2.447 2.062 1.372 3.752 3.234 4.919 5.419s1.775 4.625 1.769 7.102z" fill="#263238" opacity=".3"/><path d="m317.908 831.45v13.89h-50l5.52-35.52h22.85c5.736.003 11.236 2.283 15.292 6.339 4.056 4.055 6.336 9.555 6.338 15.291z" fill="#4d61fc"/><path d="m317.919 831.44v13.91h-19.05c4.53-10.16 4.22-22.19 1.63-35.09 4.905.971 9.322 3.613 12.498 7.474 3.176 3.862 4.916 8.706 4.922 13.706z" fill="#dadddf"/><path d="m1322 821h-49.72l-16.83-48c-3.71-10.62 3.34-22.07 13.59-22.07h36.23c3.85-.016 7.58 1.358 10.5 3.87 2.06 1.743 3.62 3.995 4.54 6.53.88 2.288 1.44 4.688 1.66 7.13 1.38 17.486 1.39 35.053.03 52.54z" fill="#000" opacity=".1"/><path d="m1322.08 817.48h-44.44l-15-43c-3.33-9.48 3-19.72 12.14-19.72h32.38c3.43 0 6.75 1.231 9.35 3.47 1.81 1.566 3.19 3.574 4 5.83.79 2.044 1.29 4.188 1.49 6.37 1.25 15.657 1.27 31.388.08 47.05z" fill="#4d61fc"/><path d="m317.908 831.45v13.89h-50l5.52-35.52h22.85c5.736.003 11.236 2.283 15.292 6.339 4.056 4.055 6.336 9.555 6.338 15.291z" fill="#fff" opacity=".85"/><path d="m1322.08 817.48h-44.44l-15-43c-3.33-9.48 3-19.72 12.14-19.72h32.38c3.43 0 6.75 1.231 9.35 3.47 1.81 1.566 3.19 3.574 4 5.83.79 2.044 1.29 4.188 1.49 6.37 1.25 15.657 1.27 31.388.08 47.05z" fill="#fff" opacity=".85"/><path d="m573.35 906.81 54.48-.31 54.47-.18 108.94-.15 108.95.15 54.46.18 54.48.31-54.48.32-54.46.18-108.95.15-108.94-.15-54.47-.18z" fill="#b2b6bb"/><path d="m1273.46 863.79c5.57-.2 11.15-.3 16.73-.37s11.16-.07 16.74-.11 11.15 0 16.73.11l8.37.13c2.79.08 5.57.12 8.36.24-2.79.1-5.57.15-8.36.23l-8.37.13c-5.58.08-11.15.08-16.73.11s-11.16 0-16.74-.11-11.19-.15-16.73-.36z" fill="#61656d"/><path d="m1065.82 632.92c6.84.39 13.69.87 20.53 1.39s13.67 1.16 20.49 1.91c13.66 1.37 27.28 3 40.84 5.22 3.39.54 6.76 1.2 10.14 1.8 1.69.32 3.36.69 5 1s3.38.66 5 1.1c6.69 1.577 13.27 3.605 19.69 6.07 12.94 4.58 25.63 9.8 38.06 15.66-6.23-2.86-12.61-5.41-19-7.88s-12.82-4.83-19.3-7.09c-6.41-2.379-12.97-4.352-19.63-5.91-1.67-.43-3.36-.72-5-1.08s-3.35-.71-5-1c-3.37-.58-6.68-1.23-10.12-1.75-13.53-2.24-27.13-3.91-40.76-5.44-6.81-.78-13.64-1.45-20.46-2.12s-13.65-1.33-20.48-1.88z" fill="#61656d"/><path d="m604.089 740.84c-3.074 1.631-5.905 3.685-8.41 6.1-1.272 1.184-2.484 2.432-3.63 3.74-1.15 1.29-2.17 2.71-3.25 4.05-4.058 5.644-7.197 11.894-9.3 18.52l-.84 2.46c-.27.82-.44 1.68-.66 2.52l-1.22 5-.86 5.13-.42 2.64c-.16.85-.17 1.72-.27 2.59-.25 3.45-.7 6.9-.62 10.38s-.09 6.93 0 10.42c.28 13.93.46 27.86.41 41.8 0 6.96-.083 13.923-.25 20.89-.18 7-.38 13.93-.72 20.89.18-7 .24-13.93.25-20.9s0-13.92 0-20.88c-.1-13.93-.28-27.86-.63-41.77-.13-3.48 0-7 0-10.51s.39-7 .67-10.46c.09-.87.11-1.75.27-2.6l.44-2.59.89-5.17 1.3-5.08c.24-.84.41-1.71.7-2.53l.88-2.47c2.206-6.654 5.45-12.918 9.61-18.56 1.13-1.34 2.18-2.74 3.37-4 1.178-1.291 2.423-2.52 3.73-3.68 2.562-2.368 5.443-4.364 8.56-5.93z" fill="#61656d"/><path d="m326.051 773.1 60.38-5.28c20.12-1.774 40.236-3.6 60.35-5.48 20.12-1.82 40.23-3.66 60.32-5.73 5.026-.5 10.046-1.037 15.06-1.61 5-.56 10-1.1 15.06-1.72l7.52-.88c2.5-.29 5-.66 7.51-.95s5-.62 7.49-1.07l7.47-1.29c-19.84 3.82-40 5.94-60 8.19s-40.22 4.09-60.27 6-40.25 3.5-60.39 5.17l-30.19 2.43z" fill="#61656d"/><path d="m873.231 741.52c-3.025 4.85-5.452 10.047-7.23 15.48-1.811 5.389-3.09 10.942-3.82 16.58-.18 1.4-.39 2.81-.46 4.23s-.29 2.859-.28 4.239l-.09 4.261v21.38l-.11 34.219-.13 17.101-.22 17.149-.21-17.159-.13-17.1-.13-34.26v-17.101c-.138-5.724.197-11.45 1-17.12 1.72-11.27 5.43-22.419 11.81-31.899z" fill="#61656d"/><path d="m679.839 736.82-26.28.73c-3.46 0-6.18-6.2-6.08-13.75.1-6.74 2.45-12.41 5.52-13.43l25-7.91z" fill="#61656d"/><path d="m661.539 717.991c5.231-1.132 9.441-2.191 9.403-2.363-.037-.173-4.308.605-9.538 1.738s-9.44 2.191-9.403 2.364c.038.172 4.308-.606 9.538-1.739z" fill="#f4f4f4"/><path d="m339.209 891.76s20.67-63.3 90.43-58.13" stroke="#f4f4f4" stroke-miterlimit="10" stroke-width="1.35"/><path d="m652.49 752.88 22.6-.31 22.61-.18 45.22-.15 45.21.14 22.61.19 22.61.31-22.61.32-22.61.18-45.21.15-45.22-.15-22.61-.18z" fill="#f4f4f4"/><path d="m904.4 752.881h118.84" stroke="#f4f4f4" stroke-miterlimit="10" stroke-width="1.35"/><path d="m1034.46 1000.54h-20.74v27.66h20.74z" fill="#f29c9c"/><path d="m1013.16 1005.29s5.06.7 9.55 1.54c1.91.36 3.64 1.37 4.88 2.87 1.24 1.49 1.93 3.37 1.93 5.32v6.57h7.74v-16.3z" fill="#000" opacity=".2"/><path d="m1034.46 1020.42v24.2h-32c-.1-1.15-.12-2.31-.08-3.46.23-6.13 2.57-10.74 7-13.83l4.31-6.75v-.16c0-4.29.33-10.37 10.37-10.37 1.36-.01 2.72.26 3.98.78s2.41 1.28 3.37 2.25c.97.96 1.73 2.1 2.26 3.36.52 1.26.79 2.61.79 3.98z" fill="#4d61fc"/><path d="m1034.46 1041.16v3.46h-32c-.1-1.15-.12-2.31-.08-3.46z" fill="#3f4249"/><path d="m1016.62 1021.59s3.88-2.58 10.34 0" stroke="#fff" stroke-linecap="round" stroke-miterlimit="10" stroke-width="1.35"/><path d="m1015.34 1024.14s3.87-2.58 10.33 0" stroke="#fff" stroke-linecap="round" stroke-miterlimit="10" stroke-width="1.35"/><path d="m1014.05 1026.76s3.82-2.59 10.33 0" stroke="#fff" stroke-linecap="round" stroke-miterlimit="10" stroke-width="1.35"/><path d="m1098.43 1000.54h-20.74v27.66h20.74z" fill="#f29c9c"/><path d="m1077.69 1005.29s8.75.56 13.89 2.24c.75.25 1.4.73 1.86 1.38.46.64.7 1.42.69 2.21v10.5h6.47v-16.29h-22.92" fill="#000" opacity=".2"/><path d="m1077.58 1020.42v24.2h32c.09-1.15.12-2.31.07-3.46-.23-6.13-2.57-10.74-7-13.83l-4.32-6.75v-.16c0-4.29-4.2-10.37-10.37-10.37-1.36 0-2.71.26-3.97.79-1.26.52-2.41 1.28-3.37 2.24-.96.97-1.73 2.11-2.25 3.37s-.79 2.61-.79 3.97z" fill="#4d61fc"/><path d="m1077.58 1041.16v3.46h32c.09-1.15.12-2.31.07-3.46z" fill="#3f4249"/><path d="m1096.72 1021.59s-3.88-2.58-10.33 0" stroke="#fff" stroke-linecap="round" stroke-miterlimit="10" stroke-width="1.35"/><path d="m1098 1024.14s-3.88-2.58-10.33 0" stroke="#fff" stroke-linecap="round" stroke-miterlimit="10" stroke-width="1.35"/><path d="m1099.3 1026.76s-3.82-2.59-10.33 0" stroke="#fff" stroke-linecap="round" stroke-miterlimit="10" stroke-width="1.35"/><path d="m1101.89 1004.86h-27.42l-12.7-235.291c-1.07-9.22-9.07-9.66-10.3-.13l-14.47 235.421h-25.88l-5.12-273.131h102z" fill="#4d61fc"/><path d="m1107.16 740.26-1.33 92.16-3.94 172.44h-11.92v-264.6z" fill="#000" opacity=".2"/><path d="m1058.56 761.44v.95c-.37.009-.74.069-1.09.18-.33-.092-.66-.129-1-.11-2.23.06-4.42 2.33-5 7l-14.46 235.42h-10l-1.91-.13 12.82-233.41c.55-9.34 11.86-14.77 20.64-9.9z" fill="#000" opacity=".2"/><path d="m1005.92 731.99.31 9.22 101.99-.25v-8.97z" fill="#000" opacity=".6"/><path d="m1144.52 639.21-31 7.7-2.54-3.82-1.75 89.91h-104.58c2.56-40.67 1.43-60.45-1.91-110.55-.38-5.767-.79-11.584-1.24-17.45-.22-2.927-.45-5.867-.69-8.82l-21.809 5.17-1.16.31-23.22-24.46 42.69-20.92c5.179-3.45 49.259-1.73 82.999 6.92 30.18 7.74 53.58 20.74 54.49 35.59z" fill="#4d61fc"/><path d="m1144.52 639.21-31 7.7-2.54-3.82-1.75 89.91h-104.58c2.56-40.67 1.43-60.45-1.91-110.55-.38-5.767-.79-11.584-1.24-17.45-.22-2.927-.45-5.867-.69-8.82l-21.809 5.17-1.16.31-23.22-24.46 42.69-20.92c5.179-3.45 49.259-1.73 82.999 6.92 30.18 7.74 53.58 20.74 54.49 35.59z" fill="#3f4249"/><path d="m1001.13 596.579-2.59-11.64-29.71 9.05 9.04 7.75z" fill="#000" opacity=".6"/><path d="m1098.56 609.6v123.34l10.62-.32 1.79-89.45z" fill="#000" opacity=".6"/><path d="m1088.16 565.38c-.28 9.55-11.28 17.3-24.83 17.3-13.72 0-24.84-7.91-24.84-17.67.04-3.139 1.15-6.17 3.15-8.59 13.02 1.372 25.93 3.638 38.64 6.78 2.68.68 5.31 1.407 7.88 2.18z" fill="#000" opacity=".6"/><path d="m1149.06 667.809-4.54-28.65-31 7.75 4.6 17.57-51.64 11.46-2.87.58c-.41.167-.86.221-1.29.158-.44-.063-.85-.242-1.2-.518l-1.1-1.1c-1.04-.835-2.23-1.46-3.5-1.84-3.05-.899-5.63-2.956-7.18-5.73l-2.48-4.39c-.02-.046-.06-.088-.1-.122-.04-.033-.09-.059-.14-.075s-.1-.021-.15-.017c-.05.005-.1.02-.15.044l-.44.14c-.86.332-1.57.976-1.98 1.805-.4.828-.48 1.78-.22 2.665l1.91 6c.1.32.08.668-.07.968-.16.3-.42.527-.74.632l-12.14 5c-2.56 1-1.68 4.46.66 3.88l1.54-.37-2.42 1.24c-2.71 1.32-1.46 5 .88 4.46s5.42-1.31 5.42-1.31l-3 1.17c-.51.247-.9.678-1.1 1.205s-.2 1.111.02 1.633c.21.522.62.943 1.13 1.177.51.235 1.09.265 1.63.085 1.76-.44 4.54-1.32 4.54-1.32l-1.84.88c-2.34.73-1.54 4.39.66 4 1.91-.37 19.75-4.77 29-6.43l68.39-7.47c3.3-.326 6.34-1.949 8.44-4.512 2.1-2.564 3.1-5.857 2.78-9.158-.08-.502-.18-.999-.31-1.49z" fill="#fc9d9d"/><path d="m1138.08 682.999-68.38 7.47c-9.23 1.68-27.07 6.07-29 6.44-.27.061-.56.047-.83-.039-.26-.086-.5-.241-.69-.451 6.36-1.79 17.24-4.86 23.76-6.36l68-10.5c1.63-.234 3.19-.786 4.6-1.625 1.42-.839 2.65-1.948 3.64-3.264.98-1.316 1.7-2.813 2.1-4.405.41-1.593.49-3.249.26-4.876-.07-.516-.18-1.027-.32-1.53l-4.64-22.7 7.92-2 4.54 28.65c.72 3.236.13 6.625-1.65 9.423s-4.59 4.776-7.83 5.497c-.49.12-.98.21-1.48.27z" fill="#000" opacity=".15"/><path d="m1043.55 537.71.36 20.2c.04 4.409 1.64 8.662 4.52 11.999 2.88 3.338 6.85 5.543 11.21 6.221 7.16 1 14.82-1 19-5.8.83-.976 1.37-2.169 1.55-3.439.17-1.271-.02-2.565-.55-3.731-1.32-3-3.06-9.25-3.56-21.57-.99-20.74-32.53-3.88-32.53-3.88z" fill="#f29c9c"/><path d="m1045.05 546.189c2.64 1.64 6.45 28.42 39.15 3.62l-6.91-8.65s-7.17 20.59-32.24 5.03z" fill="#000" opacity=".15"/><path d="m1085.46 524.739c0 3.58-2.51 6.48-5.61 6.48-.85.001-1.68-.22-2.42-.64l.12 6c.07 1.438-.04 2.878-.31 4.29-.85 4.178-3.19 7.902-6.59 10.473s-7.62 3.813-11.87 3.491-8.24-2.184-11.21-5.238c-2.98-3.054-4.73-7.088-4.94-11.346l-.08-4.14c-.78.343-1.61.52-2.46.52-1.83 0-3.59-.728-4.89-2.023-1.29-1.296-2.02-3.054-2.02-4.887 0-1.832.73-3.59 2.02-4.886 1.3-1.296 3.06-2.024 4.89-2.024.75.007 1.5.146 2.2.41l-.28-13.85 34.91-1.68.28 13.3c.79-.509 1.71-.78 2.65-.78 3.15.04 5.61 2.95 5.61 6.53z" fill="#fc9d9d"/><path d="m954.62 577.199-35.68 18.51c-12 6.29-7.52 24.4 6 24.4h68.5l13.27-14-29.25-4.11.41-.26" fill="#fc9d9d"/><path d="m994.561 610.37 8.999-4.61 21.17 3c1.75.279 3.35 1.147 4.53 2.46l4.68 5.82c1.18 1.292 1.98 2.889 2.3 4.61l2.23 9.28c.15 1.08 0 2.07-1 2.3-.47.125-.96.069-1.39-.158-.43-.226-.75-.606-.91-1.062l-3.37-9.55-6.06-6.52 5.46 8.67 3.06 12c.15.539.09 1.118-.19 1.607-.27.49-.73.85-1.27 1.003-.54.152-1.12.084-1.61-.19-.49-.273-.85-.731-1-1.27-1-3.15-2.6-8.52-2.6-8.52l-6.43-10 6.49 10 2.87 6.06c.22.448.25.963.1 1.436-.16.472-.5.865-.94 1.094-.44.26-.96.341-1.46.228s-.94-.413-1.22-.838c-1.47-2.22-4.53-6.29-4.53-6.29l-5.9-7.82 6.36 9.55c.18.306.24.662.18 1.009-.05.348-.23.666-.49.901-.27.217-.61.321-.95.291s-.66-.191-.89-.451l-5.83-6.29c-.85-.841-1.91-1.45-3.06-1.77-4.16-.921-8-2.929-11.13-5.82l-.46-.46h-6.829z" fill="#fc9d9d"/><g fill="#000" opacity=".15"><path d="m1020.8 634.5c.23.26.55.422.89.45s.68-.08.95-.3c.29-.213.49-.533.55-.891s-.03-.725-.24-1.019l-5.9-8.82c-.7.38-1 1.38-1.62 1.69-.95.46-2 .23-2.61.46l-1 .38c1.18.252 2.25.867 3.06 1.76z" opacity=".15"/><path d="m1034.3 636.679-3.06-12-5.48-8.67 6 6.6 3.45 9.55c.07.232.19.447.34.633.16.187.34.341.56.454.21.113.45.184.69.206.24.023.48-.001.71-.073 1-.23 1.16-1.22 1-2.3l-2.23-9.32c-.34-1.71-1.14-3.299-2.3-4.6l-4.68-5.83c-.4-.422-.84-.803-1.31-1.14.14 1.133.04 2.283-.31 3.37-.5.942-1.18 1.775-2 2.45-.77.77-.61 2.3-1.3 3.07-.38.46-1.91.85-2.38 1.23-1 .76-1.23 2-2 2.53s-1.91.53-2.87 1.07l5.37 7.06s3 4.07 4.52 6.29c.29.428.72.73 1.22.843.5.114 1.03.031 1.47-.233.17-.103.33-.231.46-.38 0 .08.07.23.07.31.19.543.58.99 1.09 1.243.52.253 1.11.292 1.65.107l.13-.05c.47-.182.84-.531 1.07-.979.22-.448.26-.961.12-1.441z" opacity=".15"/></g><path d="m1052.19 529.93c.96 0 1.73-.775 1.73-1.73 0-.956-.77-1.73-1.73-1.73-.95 0-1.73.774-1.73 1.73 0 .955.78 1.73 1.73 1.73z" fill="#000"/><path d="m1051.76 528.2c.24 0 .43-.193.43-.43 0-.238-.19-.43-.43-.43s-.43.192-.43.43c0 .237.19.43.43.43z" fill="#fff"/><path d="m1067.75 529.069c.95 0 1.73-.774 1.73-1.73 0-.955-.78-1.73-1.73-1.73-.96 0-1.73.775-1.73 1.73 0 .956.77 1.73 1.73 1.73z" fill="#000"/><path d="m1067.32 527.33c.24 0 .43-.193.43-.43 0-.238-.19-.43-.43-.43s-.43.192-.43.43c0 .237.19.43.43.43z" fill="#fff"/><path d="m1066 540.3c-.18 1.21-.79 2.315-1.71 3.114-.93.799-2.11 1.239-3.33 1.239-1.23 0-2.41-.44-3.34-1.239-.92-.799-1.53-1.904-1.71-3.114z" fill="#fff"/><path d="m1077.68 499.999c.04-2.905-1.08-5.706-3.1-7.792-2.03-2.085-4.79-3.285-7.7-3.338-.87.003-1.73.118-2.57.34-1.17-1.623-2.75-2.904-4.58-3.71s-3.85-1.108-5.83-.874c-1.99.233-3.88.994-5.47 2.203-1.6 1.208-2.84 2.821-3.6 4.671h-.83c-2.98-.002-5.83 1.177-7.94 3.279s-3.29 4.955-3.3 7.931c0 .435.03.869.08 1.3-1.2 3.225-1.24 6.768-.11 10.017 1.14 3.249 3.37 6.002 6.31 7.783.07 0 .12.1.19.14v3.16c0 .171.03.34.1.498.06.158.16.301.28.422.12.12.26.216.42.282.16.065.33.098.5.098s.34-.033.5-.098c.16-.066.3-.162.42-.282.12-.121.22-.264.28-.422.07-.158.1-.327.1-.498v-3.31c1.91-.71 2.48-1.72 1.73-10.08 0-2.6 0-3.46 16.41-4.32 12-.63 12.89.77 13.51 0-.87 2.57-2.79 11.86 3.82 12.14v3.82c0 .171.03.34.1.498.06.158.16.301.28.422.12.12.27.216.42.282.16.065.33.098.5.098s.34-.033.5-.098c.16-.066.3-.162.42-.282.12-.121.22-.264.28-.422.07-.158.1-.327.1-.498v-3.64c1.48-1.057 2.69-2.456 3.52-4.078s1.26-3.42 1.25-5.242c0-2.231-.67-4.412-1.91-6.264-1.25-1.852-3.01-3.292-5.08-4.136z" fill="#000"/><path d="m1044.86 523.439c-.23.001-.45.068-.65.194-.19.127-.34.306-.43.516-.46 1.007-.69 2.103-.68 3.21.1 1.996.97 3.876 2.41 5.252 1.45 1.376 3.37 2.144 5.37 2.144s3.92-.768 5.37-2.144 2.31-3.256 2.41-5.252c0-1.371-.36-2.718-1.06-3.9z" stroke="#000" stroke-miterlimit="10" stroke-width=".91"/><path d="m1076.14 524.149c-.1-.212-.25-.392-.45-.518-.19-.126-.42-.192-.65-.192h-12.73c-.59 1.027-.95 2.176-1.03 3.359s.11 2.37.55 3.469c.45 1.099 1.14 2.081 2.03 2.872.88.791 1.93 1.369 3.08 1.69 1.14.321 2.34.376 3.5.163 1.17-.214 2.27-.692 3.23-1.398.95-.705 1.73-1.619 2.28-2.672.54-1.053.84-2.217.87-3.403.03-1.16-.2-2.312-.68-3.37z" stroke="#000" stroke-miterlimit="10" stroke-width=".91"/><path d="m1057.81 523.439h4.32" stroke="#000" stroke-miterlimit="10" stroke-width=".91"/><path d="m1039.22 998.379h-29.39v6.911h29.39z" fill="#4d61fc"/><path d="m1039.23 998.379h-14.1v6.911h14.1z" fill="#000" opacity=".2"/><path d="m1103.18 998.379h-29.39v6.911h29.39z" fill="#4d61fc"/><path d="m1039.22 998.379h-29.39v6.911h29.39z" fill="#000" opacity=".3"/><path d="m1103.18 998.379h-29.39v6.911h29.39z" fill="#000" opacity=".3"/><path d="m1103.19 998.379h-13.11v6.911h13.11z" fill="#000" opacity=".2"/><path d="m1064.06 537.27c-.09-.148-.23-.256-.39-.301-.17-.045-.34-.023-.49.061-.53.261-1.12.361-1.7.29-.43-.067-.84-.231-1.19-.48-.21-.13-.37-.336-.44-.576-.07-.241-.05-.5.06-.724.04-.07.09-.134.14-.19.05-.039.11-.073.17-.1.08-.022.16-.06.23-.112.06-.052.12-.116.16-.19.04-.073.07-.154.08-.238s0-.169-.02-.25c-.05-.164-.16-.302-.3-.387-.15-.084-.33-.107-.49-.063-.26.101-.5.254-.71.449-.2.195-.36.428-.48.687-.11.258-.17.536-.18.819 0 .282.05.562.15.825.13.339.34.638.62.87.62.527 1.39.855 2.2.943.81.087 1.63-.071 2.35-.453.07-.043.14-.099.19-.167.05-.067.09-.144.11-.225.02-.082.03-.168.01-.251-.01-.084-.04-.165-.08-.237z" fill="#000" opacity=".3"/><path d="m1083.41 522.69c-.09-.145-.23-.249-.4-.29s-.34-.016-.49.07c-.82.432-1.48 1.106-1.9 1.929-.42.824-.57 1.756-.44 2.671.2.81 1 1 1.25-.34 0-.519.08-1.034.23-1.53.22-.513.56-.963 1-1.31.22-.17 1.16-.55.75-1.2z" fill="#000" opacity=".3"/><path d="m1040.21 528.799c-.25-1-3.24-4.13-3.93-2.51-.04.164-.02.339.06.487.09.148.23.256.39.303h-.08c.36.161.69.366 1 .61.32.247.6.533.85.85.22.315.41.65.57 1 .04.077.1.144.17.197.07.054.15.093.24.114.08.022.17.026.26.013.09-.014.17-.045.24-.092.08-.047.14-.108.19-.18.05-.073.09-.154.1-.241.02-.086.02-.175 0-.261-.01-.086-.05-.168-.1-.24z" fill="#000" opacity=".3"/><path d="m977.87 601.74-.4.25c-8.75-2.4-23.48-6.19-24.14-6.69.76-.11 5.56.75 9 1.29l7.77-3z" fill="#000" opacity=".15"/><path d="m1353.21 1011.82c-9.41 7.1-8.43 12.72-8.33 12.86s13.85 2.48 23.27-4.62 14.25-16.54 10.82-21.102c-3.43-4.56-16.35 5.762-25.76 12.862z" fill="#4d61fc"/><path d="m1320.66 996.53c6.54 4.93 7.64 14.57 7.52 14.66s-9.62 1.73-16.17-3.2-7.89-9.33-5.5-12.49 7.61-3.91 14.15 1.03z" fill="#4d61fc"/><path d="m1357.14 978.674c2.69-13.976-.25-26.291-6.57-27.507-6.32-1.215-13.62 9.129-16.31 23.105s.25 26.288 6.57 27.508c6.32 1.21 13.62-9.13 16.31-23.106z" fill="#4d61fc"/><path d="m1345.64 969.35-11.46 76.76h-.11c.43-4.17 1.59-8.23 3.43-12 1.8-3.77 4.21-7.22 7.14-10.21.34-.39.71-.76 1.11-1.09l1.17-1.05 1.16-1 1.26-1c.85-.6 1.69-1.23 2.55-1.81l2.72-1.56 1.36-.77 1.43-.64 2.86-1.26c1.91-.73 4-1.3 5.93-2-2 .67-4 1.25-5.92 2l-2.87 1.26-1.42.64-1.35.78-2.72 1.55c-.87.59-1.69 1.23-2.54 1.83l-1.26.95-1.16 1.05-1.16 1c-.4.34-.77.7-1.12 1.09-2.9 3-5.3 6.45-7.09 10.22-1.84 3.74-2.99 7.78-3.4 11.93h-.12z" fill="#000"/><path d="m1333.8 1045.85c.98-4.38 1.39-8.88 1.2-13.37-.15-4.49-1.07-8.93-2.73-13.11-1.64-4.2-4.26-7.94-7.64-10.92-3.42-2.92-7.4-5.12-11.7-6.46 4.31 1.32 8.31 3.5 11.75 6.41 3.4 2.97 6.04 6.72 7.7 10.92 1.63 4.2 2.52 8.65 2.63 13.16.19 4.49-.22 8.99-1.21 13.37z" fill="#000"/><path d="m355.609 302.7s18.39-33.7 64.94-16.3c3.599 1.373 7.454 1.943 11.296 1.669s7.578-1.386 10.945-3.256 6.284-4.454 8.547-7.571 3.817-6.691 4.552-10.472c3.52-18.71 6.68-37.64 30.14-34.38 39.05 5.47 14.84 67.17 46.85 64.82 10.68-.79 17.36-2.6 22.57-4.68 19.013-7.471 40.153-7.449 59.15.06 19.68 7.64 40.88 16.33 40.88 16.33z" fill="#fff"/><path d="m1135.11 332.69s14.51-26.58 51.21-12.84c5.15 1.968 10.87 1.809 15.91-.441 5.03-2.25 8.97-6.408 10.94-11.559.43-1.136.77-2.307 1-3.5 2.78-14.76 5.29-29.69 23.78-27.11 30.8 4.32 11.69 53 37 51.14 8.43-.62 13.7-2.06 17.81-3.7 15-5.881 31.67-5.86 46.66.06 15.53 6 32.25 12.88 32.25 12.88z" fill="#fff"/></svg>